<svg width="1732" height="1126" viewBox="0 0 1732 1126" fill="none" xmlns="http://www.w3.org/2000/svg">
<rect width="1732" height="1126" fill="#1E1E1E"/>
<path d="M0.746094 0.0829926H1731.75V1125.08H0.746094V0.0829926Z" fill="#6327C7"/>
<g filter="url(#filter0_d_31_390)">
<path d="M1728.75 807.03V1117.08H1389.65C1388.39 1106.26 1387.75 1095.25 1387.75 1084.08C1387.75 927.79 1514.45 801.08 1670.75 801.08C1690.62 801.08 1710.02 803.13 1728.75 807.03Z" fill="#D9D9D9" fill-opacity="0.2"/>
</g>
<g filter="url(#filter1_d_31_390)">
<path d="M0.746094 234.729C115.496 218.458 203.746 119.826 203.746 0.582993C203.746 0.415993 203.746 0.249993 203.746 0.0829926H0.746094V234.729Z" fill="#D9D9D9" fill-opacity="0.2"/>
</g>
<g opacity="0.2">
<path d="M1359.41 30.8733C1357.64 31.1563 1356.04 32.1133 1354.95 33.5443L1300.49 105.036L1336.23 99.3023L1392.39 25.5873L1359.41 30.8733ZM1412.41 22.3883L1356.25 96.1033L1391.99 90.3693L1448.15 16.6543L1412.41 22.3883ZM1463.61 19.4453L1404.3 97.3123L1461.18 192.351L1520.49 114.484L1463.61 19.4453ZM1449.19 199.544L1392.29 104.481L1295.65 119.976L1352.54 215.027L1449.19 199.544ZM1343.83 25.0633C1347.09 20.7803 1351.87 17.9163 1357.19 17.0643L1463.2 0.0873204C1464.58 -0.13268 1465.99 0.0653288 1467.25 0.655329C1468.52 1.24533 1469.58 2.20133 1470.3 3.39933L1532.5 107.315C1533.93 109.713 1534.61 112.486 1534.45 115.275C1534.3 118.065 1533.31 120.743 1531.61 122.965L1466.05 209.038C1464.97 210.469 1463.37 211.426 1461.59 211.709L1354.77 228.817C1352.01 229.264 1349.18 228.872 1346.64 227.694C1344.11 226.516 1341.98 224.605 1340.55 222.208L1278.35 118.292C1277.63 117.093 1277.29 115.708 1277.37 114.314C1277.44 112.92 1277.94 111.581 1278.78 110.47L1343.83 25.0633Z" fill="#C1A9E9"/>
<path d="M1551.35 131.338C1549.58 131.679 1548.02 132.687 1546.98 134.153L1494.88 207.383L1530.41 200.487L1584.14 124.98L1551.35 131.338ZM1604.04 121.129L1550.32 196.636L1585.85 189.74L1639.58 114.233L1604.04 121.129ZM1655.11 116.519L1598.38 196.278L1658.33 289.412L1715.07 209.652L1655.11 116.519ZM1646.58 296.991L1586.61 203.835L1490.53 222.473L1550.49 315.618L1646.58 296.991ZM1535.58 126.04C1538.7 121.652 1543.39 118.634 1548.68 117.609L1654.07 97.1843C1655.45 96.9193 1656.86 97.0713 1658.15 97.6203C1659.43 98.1683 1660.52 99.0893 1661.28 100.262L1726.83 202.095C1728.34 204.446 1729.12 207.194 1729.05 209.988C1728.98 212.781 1728.08 215.49 1726.46 217.766L1663.74 305.931C1662.7 307.397 1661.14 308.405 1659.37 308.746L1553.16 329.328C1550.42 329.865 1547.58 329.566 1545.01 328.471C1542.43 327.376 1540.25 325.536 1538.73 323.187L1473.18 221.354C1472.42 220.179 1472.04 218.806 1472.07 217.41C1472.1 216.015 1472.55 214.66 1473.36 213.522L1535.58 126.04Z" fill="#C1A9E9"/>
<path d="M1355.99 255.714C1354.22 256.02 1352.63 256.997 1351.56 258.442L1298.02 330.618L1333.68 324.432L1388.9 250.011L1355.99 255.714ZM1408.88 246.559L1353.66 320.979L1389.32 314.793L1444.54 240.372L1408.88 246.559ZM1460.03 242.967L1401.71 321.579L1459.8 415.89L1518.12 337.277L1460.03 242.967ZM1447.9 423.234L1389.8 328.9L1293.36 345.619L1351.46 439.941L1447.9 423.234ZM1340.33 250.103C1343.54 245.779 1348.29 242.854 1353.6 241.935L1459.38 223.615C1460.75 223.378 1462.17 223.558 1463.44 224.132C1464.71 224.706 1465.79 225.648 1466.52 226.837L1530.03 329.957C1531.49 332.337 1532.21 335.1 1532.09 337.891C1531.97 340.683 1531.01 343.373 1529.35 345.617L1464.88 432.513C1463.81 433.958 1462.23 434.935 1460.45 435.241L1353.86 453.702C1351.1 454.183 1348.27 453.828 1345.72 452.682C1343.17 451.536 1341.02 449.652 1339.55 447.273L1276.04 344.153C1275.31 342.964 1274.95 341.584 1275.01 340.189C1275.07 338.794 1275.55 337.449 1276.38 336.327L1340.33 250.103Z" fill="#C1A9E9"/>
<path d="M1359.41 30.8733C1357.64 31.1563 1356.04 32.1133 1354.95 33.5443L1300.49 105.036L1336.23 99.3023L1392.39 25.5873L1359.41 30.8733ZM1412.41 22.3883L1356.25 96.1033L1391.99 90.3693L1448.15 16.6543L1412.41 22.3883ZM1463.61 19.4453L1404.3 97.3123L1461.18 192.351L1520.49 114.484L1463.61 19.4453ZM1449.19 199.544L1392.29 104.481L1295.65 119.976L1352.54 215.027L1449.19 199.544ZM1343.83 25.0633C1347.09 20.7803 1351.87 17.9163 1357.19 17.0643L1463.2 0.0873204C1464.58 -0.13268 1465.99 0.0653288 1467.25 0.655329C1468.52 1.24533 1469.58 2.20133 1470.3 3.39933L1532.5 107.315C1533.93 109.713 1534.61 112.486 1534.45 115.275C1534.3 118.065 1533.31 120.743 1531.61 122.965L1466.05 209.038C1464.97 210.469 1463.37 211.426 1461.59 211.709L1354.77 228.817C1352.01 229.264 1349.18 228.872 1346.64 227.694C1344.11 226.516 1341.98 224.605 1340.55 222.208L1278.35 118.292C1277.63 117.093 1277.29 115.708 1277.37 114.314C1277.44 112.92 1277.94 111.581 1278.78 110.47L1343.83 25.0633Z" stroke="#C1A9E9"/>
<path d="M1551.35 131.338C1549.58 131.679 1548.02 132.687 1546.98 134.153L1494.88 207.383L1530.41 200.487L1584.14 124.98L1551.35 131.338ZM1604.04 121.129L1550.32 196.636L1585.85 189.74L1639.58 114.233L1604.04 121.129ZM1655.11 116.519L1598.38 196.278L1658.33 289.412L1715.07 209.652L1655.11 116.519ZM1646.58 296.991L1586.61 203.835L1490.53 222.473L1550.49 315.618L1646.58 296.991ZM1535.58 126.04C1538.7 121.652 1543.39 118.634 1548.68 117.609L1654.07 97.1843C1655.45 96.9193 1656.86 97.0713 1658.15 97.6203C1659.43 98.1683 1660.52 99.0893 1661.28 100.262L1726.83 202.095C1728.34 204.446 1729.12 207.194 1729.05 209.988C1728.98 212.781 1728.08 215.49 1726.46 217.766L1663.74 305.931C1662.7 307.397 1661.14 308.405 1659.37 308.746L1553.16 329.328C1550.42 329.865 1547.58 329.566 1545.01 328.471C1542.43 327.376 1540.25 325.536 1538.73 323.187L1473.18 221.354C1472.42 220.179 1472.04 218.806 1472.07 217.41C1472.1 216.015 1472.55 214.66 1473.36 213.522L1535.58 126.04Z" stroke="#C1A9E9"/>
<path d="M1355.99 255.714C1354.22 256.02 1352.63 256.997 1351.56 258.442L1298.02 330.618L1333.68 324.432L1388.9 250.011L1355.99 255.714ZM1408.88 246.559L1353.66 320.979L1389.32 314.793L1444.54 240.372L1408.88 246.559ZM1460.03 242.967L1401.71 321.579L1459.8 415.89L1518.12 337.277L1460.03 242.967ZM1447.9 423.234L1389.8 328.9L1293.36 345.619L1351.46 439.941L1447.9 423.234ZM1340.33 250.103C1343.54 245.779 1348.29 242.854 1353.6 241.935L1459.38 223.615C1460.75 223.378 1462.17 223.558 1463.44 224.132C1464.71 224.706 1465.79 225.648 1466.52 226.837L1530.03 329.957C1531.49 332.337 1532.21 335.1 1532.09 337.891C1531.97 340.683 1531.01 343.373 1529.35 345.617L1464.88 432.513C1463.81 433.958 1462.23 434.935 1460.45 435.241L1353.86 453.702C1351.1 454.183 1348.27 453.828 1345.72 452.682C1343.17 451.536 1341.02 449.652 1339.55 447.273L1276.04 344.153C1275.31 342.964 1274.95 341.584 1275.01 340.189C1275.07 338.794 1275.55 337.449 1276.38 336.327L1340.33 250.103Z" stroke="#C1A9E9"/>
</g>
<g opacity="0.2">
<path d="M256.953 719.527C255.293 718.834 253.431 718.807 251.752 719.451L167.83 751.601L201.241 765.527L287.779 732.383L256.953 719.527ZM306.486 740.193L219.948 773.338L253.36 787.268L339.898 754.12L306.486 740.193ZM351.574 764.625L260.171 799.647L258.549 910.397L349.953 875.377L351.574 764.625ZM244.569 910.208L246.191 799.427L155.851 761.76L154.23 872.527L244.569 910.208ZM246.756 706.388C251.784 704.462 257.36 704.543 262.329 706.615L361.411 747.946C362.699 748.484 363.796 749.396 364.562 750.563C365.327 751.731 365.726 753.102 365.705 754.498L363.933 875.598C363.89 878.388 363.012 881.107 361.41 883.397C359.809 885.687 357.559 887.438 354.949 888.438L253.913 927.147C252.235 927.787 250.372 927.768 248.713 927.068L148.867 885.417C146.286 884.347 144.085 882.528 142.548 880.198C141.012 877.858 140.212 875.118 140.25 872.318L142.022 751.224C142.043 749.828 142.481 748.47 143.281 747.325C144.08 746.181 145.204 745.3 146.507 744.8L246.756 706.388Z" fill="#C1A9E9"/>
<path d="M367.328 905.937C365.647 905.307 363.785 905.337 362.128 906.037L279.298 940.907L313.146 953.738L398.557 917.787L367.328 905.937ZM417.509 924.978L332.098 960.927L365.946 973.757L451.357 937.807L417.509 924.978ZM463.37 947.927L373.157 985.907L375.148 1096.66L465.361 1058.68L463.37 947.927ZM361.169 1096.92L359.177 986.147L267.657 951.447L269.649 1062.21L361.169 1096.92ZM356.708 893.137C361.67 891.057 367.246 890.958 372.281 892.858L472.657 930.937C473.962 931.437 475.089 932.308 475.892 933.458C476.695 934.598 477.138 935.948 477.163 937.348L479.34 1058.44C479.389 1061.23 478.599 1063.98 477.074 1066.32C475.548 1068.66 473.356 1070.49 470.781 1071.57L371.061 1113.55C369.404 1114.25 367.541 1114.29 365.86 1113.65L264.71 1075.28C262.094 1074.29 259.835 1072.54 258.224 1070.26C256.612 1067.97 255.722 1065.26 255.669 1062.46L253.492 941.368C253.467 939.978 253.861 938.597 254.623 937.427C255.384 936.257 256.479 935.347 257.765 934.807L356.708 893.137Z" fill="#C1A9E9"/>
<path d="M135.758 908.938C134.09 908.268 132.227 908.268 130.556 908.928L47.048 942.137L80.634 955.647L166.745 921.408L135.758 908.938ZM185.549 928.978L99.438 963.218L133.024 976.718L219.135 942.478L185.549 928.978ZM230.943 952.838L139.991 989.007L139.773 1099.77L230.725 1063.6L230.943 952.838ZM125.791 1099.76L126.009 988.968L35.2 952.448L34.982 1063.23L125.791 1099.76ZM125.395 895.928C130.398 893.938 135.975 893.948 140.97 895.958L240.567 936.038C241.862 936.558 242.971 937.448 243.751 938.608C244.532 939.768 244.947 941.138 244.945 942.528L244.707 1063.64C244.7 1066.43 243.856 1069.16 242.284 1071.47C240.712 1073.78 238.484 1075.57 235.887 1076.6L135.35 1116.58C133.679 1117.25 131.817 1117.25 130.149 1116.57L29.783 1076.19C27.188 1075.15 24.964 1073.36 23.399 1071.04C21.833 1068.73 20.998 1066 21 1063.2L21.238 942.088C21.241 940.698 21.662 939.328 22.447 938.178C23.232 937.018 24.344 936.128 25.641 935.608L125.395 895.928Z" fill="#C1A9E9"/>
<path d="M256.953 719.527C255.293 718.834 253.431 718.807 251.752 719.451L167.83 751.601L201.241 765.527L287.779 732.383L256.953 719.527ZM306.486 740.193L219.948 773.338L253.36 787.268L339.898 754.12L306.486 740.193ZM351.574 764.625L260.171 799.647L258.549 910.397L349.953 875.377L351.574 764.625ZM244.569 910.208L246.191 799.427L155.851 761.76L154.23 872.527L244.569 910.208ZM246.756 706.388C251.784 704.462 257.36 704.543 262.329 706.615L361.411 747.946C362.699 748.484 363.796 749.396 364.562 750.563C365.327 751.731 365.726 753.102 365.705 754.498L363.933 875.598C363.89 878.388 363.012 881.107 361.41 883.397C359.809 885.687 357.559 887.438 354.949 888.438L253.913 927.147C252.235 927.787 250.372 927.768 248.713 927.068L148.867 885.417C146.286 884.347 144.085 882.528 142.548 880.198C141.012 877.858 140.212 875.118 140.25 872.318L142.022 751.224C142.043 749.828 142.481 748.47 143.281 747.325C144.08 746.181 145.204 745.3 146.507 744.8L246.756 706.388Z" stroke="#C1A9E9"/>
<path d="M367.328 905.937C365.647 905.307 363.785 905.337 362.128 906.037L279.298 940.907L313.146 953.738L398.557 917.787L367.328 905.937ZM417.509 924.978L332.098 960.927L365.946 973.757L451.357 937.807L417.509 924.978ZM463.37 947.927L373.157 985.907L375.148 1096.66L465.361 1058.68L463.37 947.927ZM361.169 1096.92L359.177 986.147L267.657 951.447L269.649 1062.21L361.169 1096.92ZM356.708 893.137C361.67 891.057 367.246 890.958 372.281 892.858L472.657 930.937C473.962 931.437 475.089 932.308 475.892 933.458C476.695 934.598 477.138 935.948 477.163 937.348L479.34 1058.44C479.389 1061.23 478.599 1063.98 477.074 1066.32C475.548 1068.66 473.356 1070.49 470.781 1071.57L371.061 1113.55C369.404 1114.25 367.541 1114.29 365.86 1113.65L264.71 1075.28C262.094 1074.29 259.835 1072.54 258.224 1070.26C256.612 1067.97 255.722 1065.26 255.669 1062.46L253.492 941.368C253.467 939.978 253.861 938.597 254.623 937.427C255.384 936.257 256.479 935.347 257.765 934.807L356.708 893.137Z" stroke="#C1A9E9"/>
<path d="M135.758 908.938C134.09 908.268 132.227 908.268 130.556 908.928L47.048 942.137L80.634 955.647L166.745 921.408L135.758 908.938ZM185.549 928.978L99.438 963.218L133.024 976.718L219.135 942.478L185.549 928.978ZM230.943 952.838L139.991 989.007L139.773 1099.77L230.725 1063.6L230.943 952.838ZM125.791 1099.76L126.009 988.968L35.2 952.448L34.982 1063.23L125.791 1099.76ZM125.395 895.928C130.398 893.938 135.975 893.948 140.97 895.958L240.567 936.038C241.862 936.558 242.971 937.448 243.751 938.608C244.532 939.768 244.947 941.138 244.945 942.528L244.707 1063.64C244.7 1066.43 243.856 1069.16 242.284 1071.47C240.712 1073.78 238.484 1075.57 235.887 1076.6L135.35 1116.58C133.679 1117.25 131.817 1117.25 130.149 1116.57L29.783 1076.19C27.188 1075.15 24.964 1073.36 23.399 1071.04C21.833 1068.73 20.998 1066 21 1063.2L21.238 942.088C21.241 940.698 21.662 939.328 22.447 938.178C23.232 937.018 24.344 936.128 25.641 935.608L125.395 895.928Z" stroke="#C1A9E9"/>
</g>
<defs>
<filter id="filter0_d_31_390" x="1137.75" y="551.08" width="841" height="816" filterUnits="userSpaceOnUse" color-interpolation-filters="sRGB">
<feFlood flood-opacity="0" result="BackgroundImageFix"/>
<feColorMatrix in="SourceAlpha" type="matrix" values="0 0 0 0 0 0 0 0 0 0 0 0 0 0 0 0 0 0 127 0" result="hardAlpha"/>
<feOffset/>
<feGaussianBlur stdDeviation="125"/>
<feComposite in2="hardAlpha" operator="out"/>
<feColorMatrix type="matrix" values="0 0 0 0 0.623529 0 0 0 0 0.243137 0 0 0 0 0.807843 0 0 0 1 0"/>
<feBlend mode="normal" in2="BackgroundImageFix" result="effect1_dropShadow_31_390"/>
<feBlend mode="normal" in="SourceGraphic" in2="effect1_dropShadow_31_390" result="shape"/>
</filter>
<filter id="filter1_d_31_390" x="-249.254" y="-249.917" width="703" height="734.646" filterUnits="userSpaceOnUse" color-interpolation-filters="sRGB">
<feFlood flood-opacity="0" result="BackgroundImageFix"/>
<feColorMatrix in="SourceAlpha" type="matrix" values="0 0 0 0 0 0 0 0 0 0 0 0 0 0 0 0 0 0 127 0" result="hardAlpha"/>
<feOffset/>
<feGaussianBlur stdDeviation="125"/>
<feComposite in2="hardAlpha" operator="out"/>
<feColorMatrix type="matrix" values="0 0 0 0 0.623529 0 0 0 0 0.243137 0 0 0 0 0.807843 0 0 0 1 0"/>
<feBlend mode="normal" in2="BackgroundImageFix" result="effect1_dropShadow_31_390"/>
<feBlend mode="normal" in="SourceGraphic" in2="effect1_dropShadow_31_390" result="shape"/>
</filter>
</defs>
</svg>
