<svg width="326" height="327" viewBox="0 0 326 327" fill="none" xmlns="http://www.w3.org/2000/svg">
<path d="M267.02 186.246H218.003V240.698H267.02V186.246Z" fill="#EBEBEB"/>
<path d="M292.331 186.246H267.02V240.698H292.331V186.246Z" fill="#DBDBDB"/>
<path d="M290.59 236.944C288.716 233.073 286.858 229.188 285.015 225.29L279.525 213.583L274.107 201.811C272.308 197.887 270.528 193.946 268.767 189.987C270.636 193.859 272.493 197.743 274.335 201.641L279.832 213.354L285.25 225.126C287.049 229.05 288.829 232.99 290.59 236.944Z" fill="#EBEBEB"/>
<path d="M290.59 189.994C288.829 193.952 287.049 197.894 285.25 201.818L279.832 213.59L274.335 225.303C272.497 229.192 270.641 233.075 268.767 236.951C270.506 233.001 272.286 229.061 274.107 225.133L279.525 213.361L285.015 201.648C286.854 197.75 288.712 193.865 290.59 189.994Z" fill="#EBEBEB"/>
<path d="M267.02 104.012H218.003V154.71H267.02V104.012Z" fill="#EBEBEB"/>
<path d="M292.331 104.012H267.02V154.71H292.331V104.012Z" fill="#DBDBDB"/>
<path d="M246.671 115.778H245.634H244.859L244.409 114.869L243.783 115.778L242.942 113.914L242.14 115.778H239.845H238.795L238.417 114.535L238.058 115.778H237.38V104.012H246.671V115.778Z" fill="#DBDBDB"/>
<path d="M290.59 151.473C288.716 147.867 286.858 144.251 285.015 140.623L279.525 129.721L274.107 118.766C272.308 115.108 270.528 111.439 268.767 107.76C270.636 111.361 272.493 114.978 274.335 118.609L279.832 129.492L285.25 140.44C287.049 144.115 288.829 147.793 290.59 151.473Z" fill="#EBEBEB"/>
<path d="M290.59 107.76C288.829 111.439 287.049 115.108 285.25 118.766L279.832 129.721L274.335 140.61C272.497 144.238 270.641 147.854 268.767 151.46C270.506 147.784 272.286 144.115 274.107 140.453L279.525 129.492L285.015 118.583C286.854 114.956 288.712 111.348 290.59 107.76Z" fill="#EBEBEB"/>
<path d="M263.793 146.104H258.348V151.564H263.793V146.104Z" fill="white"/>
<path d="M85.9336 142.363H36.9162V193.061H85.9336V142.363Z" fill="#EBEBEB"/>
<path d="M111.244 142.363H85.9336V193.061H111.244V142.363Z" fill="#DBDBDB"/>
<path d="M109.536 189.83C107.658 186.22 105.8 182.603 103.961 178.98L98.452 168.078L93.0273 157.13C91.2365 153.476 89.4587 149.807 87.694 146.123C89.5674 149.729 91.4234 153.343 93.262 156.967L98.7584 167.875L104.177 178.83C105.967 182.479 107.754 186.146 109.536 189.83Z" fill="#EBEBEB"/>
<path d="M109.536 146.117C107.771 149.792 105.991 153.461 104.196 157.124L98.7454 168.078L93.236 178.98C91.3973 182.608 89.5413 186.224 87.6679 189.83C89.4283 186.15 91.2061 182.481 93.0013 178.823L98.452 167.869L103.929 156.96C105.767 153.337 107.636 149.722 109.536 146.117Z" fill="#EBEBEB"/>
<path d="M82.7062 184.454H77.262V189.915H82.7062V184.454Z" fill="white"/>
<path d="M270.287 154.71H221.269V186.246H270.287V154.71Z" fill="#DBDBDB"/>
<path d="M295.597 154.71H270.287V186.246H295.597V154.71Z" fill="#C7C7C7"/>
<path d="M249.938 166.476H248.901H248.119L247.675 165.573L247.049 166.476L246.208 164.612L245.406 166.476H243.111H242.062L241.683 165.233L241.325 166.476H240.647V154.71H249.938V166.476Z" fill="white"/>
<path d="M293.856 184.369C291.979 182.08 290.12 179.782 288.282 177.476L282.792 170.544L277.374 163.585C275.574 161.257 273.794 158.924 272.034 156.587C273.907 158.876 275.763 161.174 277.602 163.48L283.098 170.413L288.517 177.371C290.316 179.7 292.096 182.032 293.856 184.369Z" fill="#DBDBDB"/>
<path d="M293.856 156.587C292.096 158.929 290.316 161.259 288.517 163.578L283.098 170.544L277.602 177.476C275.763 179.778 273.907 182.076 272.034 184.369C273.773 182.028 275.553 179.695 277.374 177.371L282.792 170.413L288.282 163.48C290.12 161.178 291.979 158.881 293.856 156.587Z" fill="#DBDBDB"/>
<path d="M82.7127 110.827H33.6953V142.363H82.7127V110.827Z" fill="#DBDBDB"/>
<path d="M108.03 110.827H82.7192V142.363H108.03V110.827Z" fill="#C7C7C7"/>
<path d="M62.3638 122.592H61.3271H60.5512L60.1013 121.69L59.4819 122.592L58.6343 120.728L57.8324 122.592H55.5373H54.4876L54.1095 121.35L53.7509 122.592H53.0728V110.827H62.3638V122.592Z" fill="white"/>
<path d="M106.276 140.486C104.403 138.197 102.547 135.899 100.708 133.593L95.192 126.66L89.8 119.682C88.0004 117.354 86.2205 115.021 84.4601 112.684C86.3378 114.973 88.196 117.271 90.0347 119.577L95.5245 126.51L100.943 133.468C102.76 135.81 104.537 138.149 106.276 140.486Z" fill="#DBDBDB"/>
<path d="M106.276 112.704C104.537 115.045 102.757 117.378 100.936 119.702L95.518 126.66L90.0282 133.593C88.1895 135.895 86.3313 138.192 84.4536 140.486C86.214 138.144 87.9939 135.812 89.7934 133.488L95.192 126.529L100.688 119.597C102.544 117.295 104.407 114.997 106.276 112.704Z" fill="#DBDBDB"/>
<path d="M79.4201 193.061H30.4027V240.692H79.4201V193.061Z" fill="#DBDBDB"/>
<path d="M104.731 193.061H79.4201V240.692H104.731V193.061Z" fill="#C7C7C7"/>
<path d="M59.0712 204.833H58.0345H57.2521L56.8087 203.924L56.1828 204.833L55.3352 202.962L54.5333 204.833H52.2382H51.195L50.8169 203.584L50.4583 204.833H49.7737V193.061H59.0712V204.833Z" fill="white"/>
<path d="M103.016 237.86C101.138 234.402 99.28 230.932 97.4414 227.448L91.9515 216.984L86.5269 206.468C84.7274 202.98 82.9474 199.459 81.187 195.906C83.0648 199.363 84.923 202.834 86.7616 206.317L92.2515 216.781L97.6761 227.298C99.4539 230.803 101.234 234.324 103.016 237.86Z" fill="#DBDBDB"/>
<path d="M103.016 195.899C101.247 199.431 99.4669 202.951 97.6761 206.461L92.2515 216.978L86.7616 227.442C84.923 230.93 83.0648 234.4 81.187 237.853C82.9518 234.322 84.7317 230.801 86.5269 227.291L91.932 216.781L97.4218 206.317C99.2561 202.834 101.121 199.361 103.016 195.899Z" fill="#DBDBDB"/>
<path d="M47.3287 212.589L38.7744 212.766L34.4321 212.844C32.9781 212.844 31.5177 212.844 30.0637 212.877H29.7768V212.589L29.7377 205.271V204.937H30.0637L38.6962 204.977C41.578 204.977 44.4533 205.049 47.3287 205.081H47.5112V205.258C47.5112 206.494 47.4525 207.73 47.4265 208.953L47.3287 212.589ZM47.3287 212.589L47.2374 208.888C47.2374 207.671 47.1657 206.468 47.1526 205.271L47.3287 205.448C44.4533 205.48 41.578 205.552 38.6962 205.552L30.0637 205.598L30.3897 205.271V212.589L30.0963 212.295C31.5177 212.295 32.939 212.295 34.3669 212.328L38.6571 212.406L47.3287 212.589Z" fill="#EBEBEB"/>
<path d="M37.6986 221.817L29.1444 221.994L24.8021 222.072C23.3481 222.072 21.8876 222.072 20.4337 222.105H20.1468V221.817L20.1077 214.512V214.178H20.4337L29.0661 214.218C31.9415 214.218 34.8233 214.29 37.6986 214.322H37.8812V214.512C37.8812 215.748 37.829 216.984 37.7964 218.207L37.6986 221.817ZM37.6986 221.817L37.6073 218.116C37.6073 216.899 37.5356 215.696 37.5226 214.499L37.6986 214.675C34.8233 214.708 31.9415 214.78 29.0661 214.78L20.4337 214.819L20.7597 214.499L20.7271 221.817L20.4337 221.523C21.855 221.523 23.2764 221.523 24.7043 221.523L28.9944 221.601L37.6986 221.817Z" fill="#EBEBEB"/>
<path d="M220.767 89.3364L212.206 89.5195L207.864 89.5915C206.417 89.5915 204.956 89.5915 203.502 89.6307H203.215V89.3364L203.183 82.0181V81.6911H203.509L212.141 81.7304C215.017 81.7304 217.898 81.8089 220.774 81.8416H220.956V82.0181C220.956 83.2607 220.904 84.4968 220.872 85.7132L220.767 89.3364ZM220.767 89.3364L220.676 85.6413C220.676 84.4183 220.604 83.215 220.591 82.0181L220.767 82.1947C217.892 82.1947 215.01 82.2994 212.135 82.3059L203.502 82.3451L203.828 82.0181L203.789 89.3364L203.502 89.0421C204.924 89.0421 206.345 89.0421 207.766 89.0813L212.056 89.1533L220.767 89.3364Z" fill="#EBEBEB"/>
<path d="M211.137 98.5644L202.576 98.754L198.234 98.8259C196.787 98.8586 195.326 98.8259 193.872 98.8652H193.579V98.5709V91.2526V90.906H193.905L202.537 90.9452C205.413 90.9452 208.288 91.0237 211.17 91.0564H211.346V91.233C211.346 92.4756 211.287 93.7117 211.261 94.9281L211.137 98.5644ZM211.137 98.5644L211.046 94.8692C211.013 93.6463 210.968 92.4429 210.955 91.2461L211.137 91.4227C208.255 91.4554 205.38 91.5273 202.505 91.5339L193.872 91.5731L194.198 91.2461L194.159 98.5644L193.872 98.27C195.294 98.27 196.715 98.2701 198.136 98.3093L202.426 98.3812L211.137 98.5644Z" fill="#EBEBEB"/>
<path d="M201.54 89.3364L192.985 89.5195L188.643 89.5915C187.189 89.5915 185.735 89.5915 184.275 89.6307H183.988V89.3364L183.949 82.0181V81.6911H184.275L192.907 81.7304C195.789 81.7304 198.664 81.8089 201.54 81.8416H201.722V82.0181C201.722 83.2607 201.664 84.4968 201.638 85.7132L201.54 89.3364ZM201.54 89.3364L201.468 85.674C201.468 84.451 201.396 83.2477 201.383 82.0508L201.559 82.2274C198.684 82.2274 195.809 82.3321 192.927 82.3386L184.294 82.3778L184.62 82.0508L184.588 89.3691L184.294 89.0748C185.722 89.0748 187.137 89.0748 188.565 89.114L192.855 89.186L201.54 89.3364Z" fill="#EBEBEB"/>
<path d="M305.566 221.817L297.006 221.994L292.663 222.072C291.216 222.072 289.755 222.072 288.301 222.105H288.008V221.817L287.975 214.512V214.178H288.301L296.934 214.218C299.809 214.218 302.691 214.29 305.566 214.322H305.742V214.512C305.742 215.748 305.69 216.984 305.658 218.207L305.566 221.817ZM305.566 221.817L305.475 218.116C305.475 216.899 305.397 215.696 305.39 214.499L305.566 214.675C302.691 214.708 299.809 214.78 296.934 214.78L288.301 214.819L288.627 214.499L288.588 221.817L288.301 221.523C289.723 221.523 291.144 221.523 292.565 221.523L296.856 221.601L305.566 221.817Z" fill="#EBEBEB"/>
<path d="M295.936 42.8305L287.376 43.007L283.033 43.0855C281.586 43.0855 280.125 43.0855 278.671 43.1182H278.404V42.8239V35.5057V35.1721H278.737L287.369 35.2114C290.244 35.2114 293.12 35.2833 296.001 35.316H296.178V35.4926C296.178 36.7352 296.119 37.9647 296.093 39.1877L295.936 42.8305ZM295.936 42.8305L295.845 39.1288C295.812 37.9124 295.767 36.709 295.754 35.5122L295.936 35.6888C293.054 35.6888 290.179 35.7934 287.304 35.7934L278.671 35.8392L278.997 35.5122L278.958 42.8305L278.671 42.5362C280.093 42.5362 281.508 42.5362 282.935 42.5754L287.226 42.6473L295.936 42.8305Z" fill="#EBEBEB"/>
<path d="M305.566 52.0584L297.006 52.235L292.663 52.3135C291.216 52.3135 289.755 52.3135 288.301 52.3462H288.008V52.0584L287.975 44.7401V44.4066H288.301L296.934 44.4458C299.809 44.4458 302.691 44.5178 305.566 44.5505H305.742V44.7271C305.742 45.9631 305.69 47.1992 305.658 48.4222L305.566 52.0584ZM305.566 52.0584L305.475 48.3568C305.475 47.1403 305.397 45.937 305.39 44.7401L305.566 44.9167C302.691 44.9167 299.809 45.0214 296.934 45.0214L288.301 45.0671L288.627 44.7401L288.588 52.0584L288.301 51.7641C289.723 51.7641 291.144 51.7641 292.565 51.8033L296.856 51.8753L305.566 52.0584Z" fill="#EBEBEB"/>
<path d="M47.3287 42.8305L38.7744 43.007L34.4321 43.0855C32.9781 43.0855 31.5177 43.0855 30.0637 43.1182H29.7768V42.8239L29.7377 35.5122V35.1787H30.0637L38.6962 35.2179C41.578 35.2179 44.4533 35.2898 47.3287 35.3225H47.5112V35.4991C47.5112 36.7417 47.4525 37.9712 47.4265 39.1942L47.3287 42.8305ZM47.3287 42.8305L47.2374 39.1288C47.2374 37.9124 47.1657 36.709 47.1526 35.5122L47.3287 35.6888C44.4533 35.6888 41.578 35.7934 38.6962 35.7934L30.0637 35.8392L30.3897 35.5122V42.8305L30.0637 42.51C31.4851 42.51 32.9064 42.51 34.3343 42.5492L38.6245 42.6212L47.3287 42.8305Z" fill="#EBEBEB"/>
<path d="M26.2691 240.79L60.4534 240.626L94.6313 240.567L163 240.463L231.369 240.567L265.547 240.626L299.731 240.79L265.547 240.947L231.369 241.006L163 241.11L94.6313 241.006L60.4534 240.947L26.2691 240.79Z" fill="#263238"/>
<path d="M166.886 300.415C244.546 300.415 307.503 293.212 307.503 284.327C307.503 275.441 244.546 268.238 166.886 268.238C89.2254 268.238 26.2691 275.441 26.2691 284.327C26.2691 293.212 89.2254 300.415 166.886 300.415Z" fill="#EBEBEB"/>
<path d="M110.762 36.8267H91.8277V240.698H110.762V36.8267Z" fill="#263238"/>
<path d="M234.172 36.8267H215.238V240.698H234.172V36.8267Z" fill="#455A64"/>
<path d="M215.238 56.8195H99.5995V63.6669H215.238V56.8195Z" fill="#37474F"/>
<path d="M215.238 101.076H99.5995V107.923H215.238V101.076Z" fill="#37474F"/>
<path d="M215.238 145.332H99.5995V152.179H215.238V145.332Z" fill="#37474F"/>
<path d="M215.238 189.588H99.5995V196.435H215.238V189.588Z" fill="#37474F"/>
<path d="M215.238 233.844H99.5995V240.692H215.238V233.844Z" fill="#37474F"/>
<path d="M148.819 64.007H112.985V101.069H148.819V64.007Z" fill="#EBEBEB"/>
<path d="M167.329 64.007H148.826V101.076H167.329V64.007Z" fill="#DBDBDB"/>
<path d="M133.947 72.6136H133.191H132.617L132.291 71.9531L131.834 72.6136L131.215 71.2468L130.628 72.6136H128.953H128.19L127.909 71.7046L127.649 72.6136H127.153V64.007H133.947V72.6136Z" fill="#DBDBDB"/>
<path d="M166.051 98.7082C164.682 96.0922 163.324 93.4479 161.976 90.7752L157.967 82.8029L154.002 74.798C152.698 72.1209 151.394 69.4395 150.09 66.7538C151.46 69.3698 152.818 72.0141 154.165 74.6868L158.182 82.6591L162.146 90.664C163.463 93.3367 164.765 96.0181 166.051 98.7082Z" fill="#EBEBEB"/>
<path d="M166.051 66.7538C164.747 69.4439 163.443 72.1253 162.139 74.798L158.175 82.8029L154.159 90.7817C152.816 93.4326 151.457 96.0748 150.084 98.7082C151.388 96.0181 152.692 93.3367 153.996 90.664L157.96 82.6591L161.97 74.6868C163.326 72.0316 164.687 69.3872 166.051 66.7538Z" fill="#EBEBEB"/>
<path d="M146.459 94.7842H142.482V98.7736H146.459V94.7842Z" fill="white"/>
<path d="M171.391 122.278H135.557V145.332H171.391V122.278Z" fill="#DBDBDB"/>
<path d="M189.895 122.278H171.391V145.332H189.895V122.278Z" fill="#C7C7C7"/>
<path d="M156.513 130.878H155.756H155.183L154.857 130.218L154.4 130.878L153.787 129.518L153.2 130.878H151.518H150.755L150.475 129.969L150.221 130.878H149.719V122.278H156.513V130.878Z" fill="white"/>
<path d="M188.624 143.958C187.246 142.284 185.887 140.606 184.549 138.923L180.532 133.854L176.568 128.766C175.264 127.066 173.96 125.361 172.656 123.652C174.034 125.326 175.392 127.005 176.731 128.688L180.747 133.756L184.712 138.844C186.033 140.545 187.337 142.249 188.624 143.958Z" fill="#DBDBDB"/>
<path d="M188.624 123.652C187.32 125.361 186.016 127.066 184.712 128.766L180.747 133.854L176.731 138.923C175.388 140.606 174.03 142.284 172.656 143.958C173.96 142.249 175.264 140.545 176.568 138.844L180.532 133.756L184.549 128.694C185.892 127.007 187.25 125.326 188.624 123.652Z" fill="#DBDBDB"/>
<path d="M299.007 279.258C298.844 277.721 281.234 239.665 279.649 238.645C279.049 238.246 273.371 240.495 266.609 243.412L266.394 243.504C264.999 244.099 239.186 251.058 239.186 251.058L250.609 275.988L277.465 268.212L277.876 268.009C277.876 268.009 291.111 279.552 292.976 280.488C294.841 281.423 299.183 280.821 299.007 279.258Z" fill="#C95F50"/>
<path d="M261.452 244.975L273.188 269.428L277.413 268.205L277.83 268.009C277.83 268.009 291.066 279.552 292.924 280.488C294.782 281.423 299.144 280.821 298.962 279.284C298.779 277.747 281.188 239.684 279.604 238.671C279.004 238.272 273.325 240.515 266.564 243.438L266.362 243.53C266.016 243.68 264.125 244.23 261.452 244.975Z" fill="#EBEBEB"/>
<path d="M299.157 279.474C298.994 277.924 281.345 239.429 279.747 238.39C279.147 237.991 273.403 240.24 266.551 243.157L277.856 268.009C277.856 268.009 291.183 279.716 293.054 280.671C294.926 281.625 299.327 281.024 299.157 279.474Z" fill="#FFC100"/>
<path d="M297.371 279.631C294.254 273.254 282.316 247.212 279.708 240.672C279.708 240.62 279.708 240.607 279.754 240.672C282.975 246.924 294.75 273.045 297.495 279.592C297.534 279.722 297.436 279.768 297.371 279.631Z" fill="#263238"/>
<path d="M290.538 278.833C290.191 278.125 289.994 277.353 289.961 276.565C289.927 275.776 290.057 274.99 290.342 274.255C290.84 272.924 291.833 271.838 293.113 271.227C293.152 271.227 293.185 271.279 293.152 271.305C291.979 272.112 291.098 273.278 290.642 274.63C290.186 275.981 290.179 277.445 290.622 278.8C290.642 278.846 290.564 278.885 290.538 278.833Z" fill="#263238"/>
<path d="M279.643 270.22C278.424 267.65 277.954 264.236 279.33 261.659C279.382 261.561 279.519 261.659 279.519 261.731C279.374 264.534 279.527 267.344 279.975 270.115C279.982 270.157 279.974 270.2 279.951 270.236C279.929 270.272 279.895 270.299 279.854 270.312C279.814 270.325 279.77 270.322 279.731 270.305C279.693 270.288 279.661 270.258 279.643 270.22Z" fill="#263238"/>
<path d="M281.332 271.855C280.112 269.284 279.643 265.877 281.019 263.3C281.071 263.196 281.208 263.3 281.208 263.372C281.063 266.173 281.216 268.982 281.664 271.75C281.671 271.792 281.662 271.835 281.64 271.871C281.618 271.907 281.583 271.934 281.543 271.947C281.503 271.96 281.459 271.957 281.42 271.94C281.381 271.923 281.35 271.893 281.332 271.855Z" fill="#263238"/>
<path d="M283.02 273.49C281.801 270.926 281.331 267.512 282.707 264.935C282.759 264.837 282.896 264.935 282.896 265.007C282.752 267.81 282.905 270.621 283.353 273.392C283.357 273.433 283.347 273.474 283.324 273.509C283.301 273.543 283.267 273.569 283.227 273.58C283.188 273.592 283.145 273.589 283.107 273.573C283.069 273.556 283.039 273.527 283.02 273.49Z" fill="#263238"/>
<path d="M284.709 275.125C283.49 272.561 283.027 269.147 284.396 266.57C284.448 266.472 284.585 266.57 284.585 266.642C284.44 269.445 284.593 272.256 285.041 275.027C285.046 275.068 285.036 275.109 285.013 275.144C284.99 275.178 284.956 275.204 284.916 275.215C284.876 275.227 284.834 275.224 284.796 275.208C284.758 275.191 284.727 275.162 284.709 275.125Z" fill="#263238"/>
<path d="M274.336 245.145C273.032 242.242 277.511 240.182 278.828 243.085C280.145 245.989 275.659 248.049 274.336 245.145Z" fill="#263238"/>
<path d="M277.752 274.229C278.906 272.012 279.056 269.363 279.486 266.943C279.492 266.889 279.485 266.834 279.465 266.783C279.445 266.733 279.413 266.687 279.372 266.651C279.332 266.616 279.283 266.59 279.23 266.577C279.177 266.564 279.122 266.564 279.069 266.577C279.069 266.531 279.01 266.498 278.958 266.525C276.683 267.806 274.784 269.665 273.449 271.914C272.699 273.222 272.393 275.367 274.101 276.178C275.809 276.989 277.054 275.53 277.752 274.229ZM275.653 275.334C272.732 276.367 273.697 272.842 274.349 271.887C274.741 271.275 275.177 270.692 275.653 270.141C276.647 269.018 277.698 267.946 278.802 266.93C278.515 268.107 278.339 269.298 278.104 270.488C277.785 271.901 277.263 274.765 275.653 275.334Z" fill="#263238"/>
<path d="M273.084 258.114C271.499 259.089 272.014 261.181 272.901 262.424C274.459 264.522 276.539 266.173 278.932 267.211C278.943 267.215 278.954 267.217 278.966 267.216C278.977 267.215 278.988 267.212 278.998 267.206C279.008 267.201 279.016 267.193 279.023 267.184C279.03 267.174 279.034 267.164 279.036 267.152C279.245 267.152 279.486 266.989 279.415 266.74C278.763 264.373 278.319 261.763 276.944 259.671C276.142 258.448 274.59 257.186 273.084 258.114ZM277.648 263.346C278.006 264.504 278.3 265.674 278.704 266.812C277.53 265.877 276.324 264.994 275.242 263.941C274.717 263.439 274.225 262.904 273.768 262.339C273.084 261.45 271.734 258.042 274.746 258.775C276.448 259.187 277.237 261.986 277.667 263.359L277.648 263.346Z" fill="#263238"/>
<path d="M205.295 169.831C205.295 169.831 205.771 184.748 208.001 192.099C208.001 192.099 210.433 193.407 211.163 193.839C211.163 193.839 192.686 238.22 193.735 255.315C194.081 260.913 200.405 270.115 206.775 274.098C218.068 281.148 273.208 274.961 273.208 274.961L265.208 241.712C265.208 241.712 230.345 243.674 229.465 241.764C228.35 239.364 235.287 220.699 240.836 205.533C241.39 204.002 246.971 198.339 246.319 188.123C245.823 181.795 244.198 175.608 241.52 169.857L205.295 169.831Z" fill="#37474F"/>
<path d="M258.844 245.381C251.235 245.237 245.041 245.884 237.432 245.891H228.852C228.195 245.906 227.539 245.845 226.896 245.708C226.29 245.607 225.743 245.283 225.364 244.799C224.862 244.04 225.129 243.079 225.305 242.261C225.688 240.469 226.122 238.686 226.609 236.911C228.526 229.717 231.03 222.667 233.383 215.598L236.956 204.702C237.25 203.819 237.543 202.93 237.915 202.086C238.269 201.3 238.67 200.535 239.114 199.797C239.975 198.384 240.667 196.873 241.175 195.297C243.235 188.515 241.26 181.498 238.854 175.095C238.528 174.239 238.202 173.382 237.843 172.532C237.843 172.473 237.726 172.499 237.752 172.564C239.943 179.32 242.557 186.351 241.084 193.558C240.744 195.254 240.152 196.89 239.33 198.411C238.906 199.182 238.443 199.934 238.026 200.713C237.616 201.507 237.261 202.328 236.963 203.172C235.659 206.749 234.537 210.366 233.331 214.002C230.925 221.196 228.396 228.338 226.394 235.643C225.898 237.461 225.436 239.292 225.025 241.13C224.725 242.49 224.047 244.334 225.227 245.459C226.094 246.283 227.45 246.381 228.578 246.394C230.475 246.394 232.366 246.394 234.264 246.394C241.977 246.394 257.905 245.74 258.864 245.708C258.907 245.705 258.947 245.685 258.976 245.653C259.005 245.62 259.019 245.578 259.017 245.534C259.014 245.491 258.995 245.451 258.962 245.422C258.93 245.393 258.887 245.378 258.844 245.381Z" fill="#263238"/>
<path d="M267.366 273.372C266.622 269.487 265.905 265.583 265.051 261.724C264.197 257.866 263.265 253.994 262.267 250.155C261.98 249.069 261.693 247.99 261.4 246.885C261.263 246.368 261.126 245.858 260.976 245.342C260.85 244.815 260.691 244.298 260.5 243.792C260.5 243.739 260.402 243.792 260.409 243.824C260.514 244.83 260.69 245.826 260.937 246.807C261.126 247.742 261.302 248.683 261.498 249.619C261.898 251.546 262.304 253.471 262.717 255.394C263.558 259.246 264.51 263.065 265.488 266.884C266.049 269.049 266.603 271.22 267.17 273.385C267.203 273.549 267.392 273.522 267.366 273.372Z" fill="#263238"/>
<path d="M200.066 224.198L239.186 209.98C239.734 208.469 240.282 206.971 240.816 205.506C241.351 204.041 246.952 198.312 246.306 188.09C245.814 181.764 244.188 175.578 241.507 169.831H205.295C205.295 169.831 205.765 184.748 208.001 192.067C208.001 192.067 210.433 193.375 211.163 193.813C211.163 193.839 205.061 208.489 200.066 224.198Z" fill="#263238"/>
<path d="M140.565 281.07C142.038 281.514 183.844 280.128 185.403 279.062C186.003 278.669 186.153 272.522 186.126 265.145V264.909C186.126 263.385 182.664 237.807 182.664 237.807L153.403 238.71L159.147 265.524V265.982C159.147 265.982 143.44 273.673 141.817 275.027C140.193 276.38 139.085 280.631 140.565 281.07Z" fill="#C95F50"/>
<path d="M140.565 281.076C142.038 281.521 183.844 280.128 185.403 279.062C186.003 278.663 186.159 272.522 186.126 265.145V264.909C186.126 264.491 185.866 262.293 185.474 259.278L158.025 260.351L159.121 265.504V265.962C159.121 265.962 143.349 273.673 141.758 275.027C140.167 276.38 139.085 280.631 140.565 281.076Z" fill="#EBEBEB"/>
<path d="M140.245 281.253C141.738 281.697 183.929 280.291 185.527 279.219C186.126 278.813 186.283 272.633 186.257 265.164L159.036 265.995C159.036 265.995 143.114 273.784 141.51 275.151C139.906 276.518 138.752 280.808 140.245 281.253Z" fill="#FFC100"/>
<path d="M140.793 279.539C147.867 279.127 176.418 278.146 183.44 278.277C183.499 278.277 183.499 278.316 183.44 278.323C176.444 278.879 147.88 279.631 140.799 279.631C140.649 279.657 140.643 279.552 140.793 279.539Z" fill="#263238"/>
<path d="M144.177 273.536C144.963 273.488 145.75 273.604 146.488 273.878C147.227 274.151 147.901 274.576 148.467 275.125C149.494 276.103 150.105 277.44 150.175 278.859C150.175 278.905 150.097 278.905 150.09 278.859C149.802 277.463 149.069 276.198 148.003 275.255C146.937 274.311 145.594 273.74 144.177 273.627C144.165 273.627 144.153 273.622 144.145 273.614C144.136 273.605 144.131 273.593 144.131 273.581C144.131 273.569 144.136 273.557 144.145 273.549C144.153 273.54 144.165 273.536 144.177 273.536Z" fill="#263238"/>
<path d="M156.31 266.786C159.147 266.655 162.459 267.551 164.297 269.814C164.369 269.899 164.245 270.004 164.161 269.958C161.639 268.742 158.997 267.798 156.278 267.139C156.255 267.137 156.232 267.131 156.212 267.12C156.191 267.109 156.173 267.094 156.158 267.076C156.143 267.058 156.132 267.037 156.125 267.015C156.118 266.993 156.116 266.97 156.118 266.946C156.12 266.923 156.127 266.901 156.138 266.88C156.149 266.859 156.163 266.841 156.181 266.826C156.199 266.811 156.22 266.8 156.242 266.793C156.264 266.786 156.287 266.784 156.31 266.786Z" fill="#263238"/>
<path d="M154.152 267.715C156.989 267.584 160.301 268.474 162.139 270.743C162.211 270.828 162.087 270.926 162.002 270.887C159.482 269.668 156.84 268.723 154.12 268.068C154.073 268.064 154.03 268.041 154 268.005C153.97 267.969 153.956 267.922 153.96 267.875C153.964 267.828 153.987 267.785 154.023 267.755C154.059 267.725 154.106 267.711 154.152 267.715Z" fill="#263238"/>
<path d="M151.994 268.644C154.83 268.513 158.143 269.402 159.981 271.672C160.053 271.757 159.929 271.855 159.844 271.815C157.324 270.597 154.682 269.652 151.962 268.997C151.915 268.992 151.872 268.97 151.842 268.933C151.812 268.897 151.798 268.851 151.802 268.804C151.806 268.757 151.829 268.714 151.865 268.684C151.901 268.654 151.948 268.639 151.994 268.644Z" fill="#263238"/>
<path d="M149.836 269.572C152.672 269.441 155.984 270.331 157.823 272.6C157.895 272.685 157.771 272.783 157.686 272.744C155.166 271.526 152.524 270.581 149.804 269.925C149.78 269.923 149.758 269.917 149.737 269.906C149.717 269.895 149.699 269.88 149.684 269.862C149.669 269.844 149.658 269.824 149.651 269.801C149.644 269.779 149.642 269.756 149.644 269.732C149.646 269.709 149.653 269.687 149.663 269.666C149.674 269.646 149.689 269.627 149.707 269.612C149.725 269.598 149.745 269.586 149.768 269.579C149.79 269.573 149.813 269.57 149.836 269.572Z" fill="#263238"/>
<path d="M181.412 271.593C184.594 271.495 184.751 276.452 181.562 276.55C178.374 276.649 178.231 271.691 181.412 271.593Z" fill="#263238"/>
<path d="M153.363 263.464C154.961 265.393 157.328 266.564 159.394 267.891C159.442 267.917 159.496 267.931 159.55 267.932C159.604 267.933 159.658 267.922 159.707 267.898C159.755 267.874 159.798 267.84 159.831 267.796C159.864 267.753 159.886 267.703 159.896 267.649C159.942 267.649 159.988 267.649 159.981 267.564C159.689 264.96 158.718 262.478 157.165 260.37C156.239 259.161 154.394 258.055 152.998 259.298C151.603 260.541 152.438 262.339 153.363 263.464ZM153.155 261.116C153.337 258.016 156.193 260.299 156.839 261.214C157.247 261.817 157.615 262.446 157.94 263.098C158.632 264.406 159.121 265.858 159.675 267.257C158.703 266.538 157.673 265.91 156.676 265.23C155.489 264.425 153.057 262.83 153.155 261.116Z" fill="#263238"/>
<path d="M169.976 265.413C169.696 263.569 167.571 263.235 166.064 263.575C163.533 264.203 161.211 265.486 159.329 267.296C159.32 267.303 159.312 267.312 159.307 267.322C159.302 267.332 159.299 267.344 159.299 267.355C159.299 267.367 159.302 267.378 159.307 267.388C159.312 267.399 159.32 267.407 159.329 267.414C159.301 267.462 159.285 267.515 159.281 267.57C159.278 267.626 159.288 267.681 159.31 267.731C159.333 267.782 159.367 267.827 159.41 267.861C159.453 267.896 159.503 267.92 159.557 267.931C161.989 268.225 164.558 268.846 167.01 268.382C168.483 268.14 170.244 267.159 169.976 265.413ZM163.378 267.617C162.179 267.506 160.992 267.329 159.786 267.257C161.077 266.493 162.407 265.797 163.769 265.171C164.431 264.873 165.113 264.624 165.81 264.425C166.892 264.131 170.544 264.203 168.712 266.708C167.694 268.088 164.813 267.761 163.378 267.617Z" fill="#263238"/>
<path d="M156.76 263.457H189.497C189.497 263.457 183.668 218.756 185.585 215.84C186.439 214.532 228.937 218.828 241.37 205.323C252.735 192.969 241.168 169.831 241.168 169.831H206.286C206.286 169.831 205.576 179.752 203.678 183.715C202.876 185.416 163.906 182.989 157.804 194.179C149.693 209.084 156.76 263.457 156.76 263.457Z" fill="#37474F"/>
<path d="M186.048 257.212C182.351 257.1 178.648 256.957 174.964 256.963C171.28 256.97 167.551 257.042 163.841 257.185C162.798 257.231 159.707 257.375 159.212 257.414C158.705 257.425 158.2 257.469 157.699 257.545C157.641 257.545 157.654 257.637 157.699 257.643C158.501 257.781 166.879 257.879 168.718 257.879C172.402 257.879 176.079 257.781 179.763 257.65C181.858 257.58 183.951 257.502 186.042 257.414C186.153 257.408 186.166 257.218 186.048 257.212Z" fill="#263238"/>
<path d="M207.727 180.543C207.877 179.49 208.014 178.437 208.138 177.391C208.418 174.991 208.666 172.571 208.738 170.158C208.738 169.968 208.477 169.988 208.457 170.158C208.229 172.022 208.06 173.892 207.851 175.756C207.642 177.62 207.479 179.484 207.134 181.315C207.03 181.864 206.795 182.786 206.097 182.8C205.152 182.8 204.969 181.531 204.891 180.838C204.714 179.099 204.682 177.349 204.793 175.606C204.898 173.644 205.145 171.642 205.367 169.674C205.367 169.602 205.256 169.589 205.243 169.674C204.428 173.513 203.646 177.522 204.324 181.446C204.347 181.84 204.477 182.221 204.7 182.547C204.923 182.873 205.23 183.132 205.589 183.297H205.628C205.627 183.318 205.627 183.34 205.628 183.362C205.628 183.473 205.628 183.584 205.628 183.696C205.621 183.789 205.621 183.883 205.628 183.977C205.628 184.173 205.628 184.363 205.628 184.559C205.628 184.597 205.643 184.634 205.67 184.661C205.697 184.688 205.733 184.703 205.771 184.703C205.809 184.703 205.846 184.688 205.873 184.661C205.9 184.634 205.915 184.597 205.915 184.559C205.939 184.555 205.962 184.543 205.979 184.526C205.997 184.508 206.009 184.485 206.012 184.461C206.084 184.085 206.084 183.699 206.012 183.323C206.246 183.322 206.475 183.262 206.678 183.148C206.881 183.033 207.051 182.868 207.173 182.669C207.515 182.011 207.705 181.285 207.727 180.543Z" fill="#263238"/>
<path d="M204.259 183.382C206.935 185.223 209.446 187.296 211.763 189.575C211.784 189.591 211.797 189.616 211.8 189.642C211.803 189.668 211.796 189.695 211.779 189.716C211.763 189.736 211.739 189.75 211.713 189.753C211.686 189.756 211.66 189.748 211.639 189.732C209.083 187.77 206.423 185.808 204.017 183.689C203.981 183.655 203.959 183.61 203.955 183.56C203.951 183.511 203.966 183.462 203.996 183.423C204.027 183.385 204.071 183.359 204.119 183.351C204.168 183.343 204.218 183.354 204.259 183.382Z" fill="#263238"/>
<path d="M232.934 185.285C232.178 185.287 231.424 185.23 230.678 185.115C230.017 184.982 229.364 184.814 228.722 184.611C227.515 184.258 226.042 183.833 225.162 182.871C224.308 181.822 223.625 180.643 223.14 179.379C222.532 178.058 222.132 176.651 221.954 175.207C221.954 175.148 221.843 175.148 221.85 175.207C221.943 176.7 222.192 178.18 222.593 179.621C222.812 180.337 223.086 181.035 223.414 181.707C223.709 182.385 224.103 183.015 224.581 183.578C225.559 184.631 227.15 185.147 228.493 185.422C229.961 185.69 231.466 185.69 232.934 185.422C233.057 185.435 233.025 185.291 232.934 185.285Z" fill="#263238"/>
<path d="M182.078 213.721C182.155 213.331 182.35 212.976 182.638 212.703C182.925 212.43 183.29 212.253 183.681 212.197C184.621 212.092 185.568 212.073 186.511 212.138C188.689 212.138 190.873 212.184 193.031 212.19C201.625 212.19 210.29 211.968 218.739 210.268C222.877 209.492 226.921 208.284 230.808 206.664C234.068 205.238 237.361 203.289 239.408 200.261C241.762 196.782 241.944 192.224 241.859 188.149C241.775 183.751 241.068 179.386 239.76 175.187C239.421 174.121 239.049 173.068 238.626 172.035C238.626 171.969 238.697 171.91 238.723 171.976C240.44 175.942 241.577 180.136 242.101 184.428C242.356 186.548 242.452 188.684 242.388 190.818C242.386 192.912 242.116 194.998 241.586 197.024C239.356 204.65 230.841 207.795 223.982 209.731C215.688 212.066 207.03 212.714 198.469 212.838C194.166 212.903 189.849 212.838 185.54 212.779C184.718 212.779 183.362 212.537 182.873 213.4C182.657 213.9 182.527 214.433 182.488 214.976C182.397 215.585 182.325 216.193 182.28 216.808C182.16 219.107 182.191 221.412 182.371 223.707C182.645 228.368 182.966 233.031 183.336 237.696C183.708 242.379 184.229 247.055 184.568 251.744C184.653 252.895 184.764 254.04 184.875 255.184C184.875 255.315 184.659 255.341 184.64 255.184C183.447 245.917 182.593 236.617 181.986 227.298C181.836 224.996 181.667 222.687 181.602 220.385C181.461 218.152 181.621 215.911 182.078 213.721Z" fill="#263238"/>
<path d="M203.039 215.434C205.947 215.394 208.849 215.176 211.73 214.78C214.449 214.44 217.155 214.067 219.854 213.609C224.549 212.805 229.348 211.922 233.775 210.13C236.206 209.19 238.471 207.865 240.484 206.206C240.536 206.16 240.614 206.239 240.562 206.285C237.211 209.555 232.96 211.471 228.487 212.687C223.354 214.03 218.121 214.951 212.839 215.441C209.572 215.726 206.291 215.822 203.013 215.728C202.989 215.711 202.969 215.688 202.956 215.661C202.944 215.634 202.938 215.604 202.941 215.574C202.944 215.544 202.954 215.515 202.971 215.491C202.989 215.466 203.012 215.447 203.039 215.434Z" fill="#263238"/>
<path d="M213.204 130.355C213.302 141.101 210.394 157.405 206.384 165.305C203.515 170.949 186.439 182.054 177.37 184.552C174.162 185.442 172.565 172.067 174.11 168.791C175.049 166.829 192.112 157.326 193.859 154.71C196.513 150.727 201.892 139.426 205.869 129.767C207.988 124.672 213.126 123.678 213.204 130.355Z" fill="#C95F50"/>
<path d="M179.724 165.743C179.724 165.743 174.697 165.135 172.434 165.357C170.172 165.58 162.002 169.523 162.772 171.335C163.743 173.676 168.888 172.329 171.326 171.335C171.326 171.335 173.556 176.75 177.461 176.567C181.367 176.384 179.724 165.743 179.724 165.743Z" fill="#C95F50"/>
<path d="M180.33 183.421C178.557 184.219 170.12 187.142 167.59 187.43C165.06 187.718 157.719 188.018 157.302 186.122C156.884 184.225 159.023 183.944 159.023 183.944C159.023 183.944 155.906 183.578 155.665 181.603C155.424 179.628 158.762 179.333 158.762 179.333C158.762 179.333 155.587 178.725 155.502 176.717C155.417 174.71 158.814 174.997 158.814 174.997C158.814 174.997 155.887 174.579 156.487 172.905C157.21 170.897 162.524 172.29 165.295 171.76C165.947 171.636 177.872 168.418 177.872 168.418L180.33 183.421Z" fill="#C95F50"/>
<path d="M158.501 174.984C162.413 175.998 164.297 175.763 168.086 174.54C168.164 174.54 168.216 174.625 168.138 174.657C164.539 176.188 162.218 176.822 158.443 175.167C158.26 175.089 158.319 174.932 158.501 174.984Z" fill="#263238"/>
<path d="M158.436 179.196C162.589 179.896 164.637 179.66 168.698 178.673C168.757 178.673 168.783 178.758 168.698 178.777C164.786 180.085 162.465 180.654 158.41 179.431C158.267 179.386 158.267 179.196 158.436 179.196Z" fill="#263238"/>
<path d="M159.231 183.859C163.3 184.245 165.556 184.081 169.377 182.616C169.468 182.584 169.527 182.715 169.442 182.754C165.686 184.624 162.876 184.853 159.231 183.983C158.984 183.924 158.977 183.833 159.231 183.859Z" fill="#263238"/>
<path d="M163.248 171.891C165.667 173.388 168.777 171.891 171.215 171.093C171.251 171.08 171.289 171.077 171.326 171.082C171.363 171.087 171.398 171.101 171.429 171.123C171.46 171.145 171.485 171.173 171.502 171.207C171.519 171.24 171.528 171.278 171.528 171.315C172.617 173.519 174.788 176.318 177.351 176.704C177.366 176.704 177.381 176.71 177.392 176.722C177.403 176.733 177.409 176.748 177.409 176.763C177.409 176.779 177.403 176.794 177.392 176.805C177.381 176.816 177.366 176.822 177.351 176.822C174.547 176.783 172.187 174.206 171.15 171.714C168.666 172.558 165.478 173.931 163.241 171.91C163.222 171.904 163.235 171.884 163.248 171.891Z" fill="#263238"/>
<path d="M198.73 141.781L212.33 150.793C212.33 150.793 214.136 132.899 213.184 127.491C212.115 121.402 209.272 123.279 205.843 128.066C202.413 132.854 198.73 141.781 198.73 141.781Z" fill="#FFC100"/>
<path opacity="0.1" d="M198.73 141.781L212.33 150.793C212.33 150.793 214.136 132.899 213.184 127.491C212.115 121.402 209.272 123.279 205.843 128.066C202.413 132.854 198.73 141.781 198.73 141.781Z" fill="black"/>
<path d="M200.816 139.636C202.707 140.545 207.988 144.076 208.855 144.652C209.318 144.959 211.111 146.247 211.574 146.548C211.633 146.588 211.574 146.673 211.509 146.633C210.622 146.064 209.677 145.58 208.783 145.018C207.89 144.456 202.394 141.055 200.777 139.701C200.751 139.675 200.816 139.609 200.816 139.636Z" fill="#263238"/>
<path d="M246.593 175.069C246.593 175.069 202.713 181.178 202.713 181.184C202.837 182.047 200.392 146.365 208.907 123.992C209.488 122.468 216.171 119.983 219.6 122.37C234.629 132.834 246.671 175.632 246.593 175.069Z" fill="#FFC100"/>
<path opacity="0.1" d="M220.637 123.148L208.562 124.914C208.582 124.844 208.608 124.777 208.64 124.711L220.428 122.965C220.501 123.022 220.571 123.083 220.637 123.148ZM223.962 126.353L207.297 128.838C207.271 128.901 207.252 128.967 207.238 129.034L224.112 126.549L223.962 126.353ZM226.74 129.832L206.215 132.867C206.215 132.932 206.215 132.997 206.169 133.063L226.896 130.009L226.74 129.832ZM229.119 133.37L205.334 136.882L205.295 137.085L229.224 133.547L229.119 133.37ZM231.232 136.948L204.617 140.872C204.617 140.937 204.617 141.002 204.585 141.068L231.317 137.144L231.232 136.948ZM233.188 140.551L204.056 144.854C204.056 144.92 204.056 144.985 204.056 145.051L233.305 140.734C233.227 140.675 233.194 140.61 233.162 140.551H233.188ZM234.974 144.174L203.587 148.811V149.007L235.079 144.357L234.974 144.174ZM236.643 147.817L203.215 152.755V152.951L236.676 148C236.652 147.936 236.633 147.871 236.617 147.804L236.643 147.817ZM238.215 151.473L202.928 156.705C202.928 156.77 202.928 156.836 202.928 156.901L238.299 151.669C238.241 151.597 238.215 151.538 238.189 151.473H238.215ZM239.708 155.142L202.72 160.603C202.72 160.668 202.72 160.727 202.72 160.792L239.793 155.318C239.727 155.26 239.701 155.201 239.682 155.142H239.708ZM241.123 158.824L202.583 164.514C202.58 164.577 202.58 164.64 202.583 164.703L241.188 159L241.123 158.824ZM242.472 162.512L202.518 168.398C202.511 168.462 202.511 168.525 202.518 168.588L242.537 162.702C242.485 162.63 242.466 162.571 242.446 162.512H242.472ZM243.776 166.208L202.524 172.303V172.486L243.835 166.391L243.776 166.208ZM245.009 169.909L202.583 176.175C202.583 176.24 202.583 176.305 202.583 176.371L245.061 170.099L245.009 169.909ZM246.182 173.63L202.713 180.046C202.713 180.112 202.713 180.177 202.713 180.236L246.228 173.814C246.182 173.755 246.163 173.689 246.143 173.63H246.182Z" fill="black"/>
<path opacity="0.1" d="M212.819 137.929L219.724 136.948C219.724 136.948 221.028 144.057 221.028 144.253C221.028 144.449 217.709 147.15 217.409 147.039C217.11 146.928 213.843 146.019 213.739 145.816C213.634 145.613 212.819 137.929 212.819 137.929Z" fill="black"/>
<path d="M202.674 150.224H159.949V197.678H202.674V150.224Z" fill="#FFC100"/>
<path opacity="0.1" d="M202.674 150.224H159.949V197.678H202.674V150.224Z" fill="black"/>
<path d="M137.891 197.678H159.949V150.224H137.891V197.678Z" fill="#FFC100"/>
<path d="M177.69 160.479H178.589H179.267L179.659 159.687L180.2 160.479L180.943 158.857L181.641 160.479H183.636H184.555L184.881 159.393L185.194 160.479H185.787V150.224H177.69V160.479Z" fill="white"/>
<g opacity="0.1">
<path d="M139.411 194.408C141.049 191.033 142.668 187.65 144.268 184.258L149.054 174.049L153.781 163.794C155.346 160.376 156.895 156.943 158.429 153.494C156.799 156.868 155.18 160.254 153.572 163.65L148.786 173.853L144.092 184.108C142.505 187.53 140.945 190.964 139.411 194.408Z" fill="black"/>
<path d="M139.411 153.494C140.949 156.943 142.501 160.376 144.066 163.794L148.786 174.049L153.572 184.258C155.176 187.65 156.795 191.033 158.429 194.408C156.895 190.968 155.346 187.535 153.781 184.108L149.054 173.853L144.268 163.65C142.664 160.25 141.045 156.864 139.411 153.494Z" fill="black"/>
</g>
<path d="M209.768 160.485H167.049L159.955 150.217H202.674L209.768 160.485Z" fill="#FFC100"/>
<g opacity="0.2">
<path d="M209.768 160.485H167.049L159.955 150.217H202.674L209.768 160.485Z" fill="black"/>
</g>
<path d="M152.868 160.492H130.869L137.963 150.224H159.955L152.868 160.492Z" fill="#FFC100"/>
<path opacity="0.1" d="M152.868 160.492H130.869L137.963 150.224H159.955L152.868 160.492Z" fill="black"/>
<path d="M211.176 129.741C213.334 129.943 217.344 126.863 218.42 123.665C218.492 123.442 217.814 121.389 217.116 118.851C216.692 117.308 216.255 115.581 215.975 113.979C215.916 113.652 206.384 118.217 206.384 118.217C207.31 120.121 208.002 122.13 208.444 124.201C208.478 124.417 208.493 124.636 208.49 124.855C208.487 124.892 208.487 124.929 208.49 124.966C208.503 126.268 208.868 129.492 211.176 129.741Z" fill="#C95F50"/>
<path d="M208.477 124.868C208.474 124.905 208.474 124.942 208.477 124.979C208.825 124.962 209.172 124.918 209.514 124.849C215.382 123.665 215.629 115.98 215.597 114.051C213.863 114.62 206.365 118.217 206.365 118.217C207.29 120.121 207.982 122.13 208.425 124.201C208.461 124.422 208.479 124.645 208.477 124.868Z" fill="#263238"/>
<path d="M215.603 101.167C217.214 104.594 216.829 115.222 214.625 117.897C211.424 121.781 205.439 122.985 201.964 118.956C198.586 115.032 199.356 101.206 201.872 98.6821C205.602 95 213.204 96.138 215.603 101.167Z" fill="#C95F50"/>
<path d="M206.436 108.832C206.436 108.832 206.488 108.871 206.488 108.898C206.443 109.617 206.488 110.441 207.14 110.703V110.742C206.358 110.604 206.28 109.506 206.436 108.832Z" fill="#263238"/>
<path d="M207.095 108.106C208.249 108.054 208.262 110.369 207.199 110.415C206.136 110.461 206.13 108.152 207.095 108.106Z" fill="#263238"/>
<path d="M202.303 108.983C202.303 108.983 202.244 109.015 202.244 109.048C202.277 109.761 202.185 110.585 201.54 110.827V110.873C202.335 110.755 202.44 109.656 202.303 108.983Z" fill="#263238"/>
<path d="M201.657 108.237C200.51 108.159 200.438 110.474 201.501 110.546C202.563 110.618 202.622 108.302 201.657 108.237Z" fill="#263238"/>
<path d="M207.988 107.04C207.684 106.956 207.386 106.854 207.095 106.733C206.765 106.667 206.465 106.494 206.241 106.242C206.187 106.149 206.165 106.041 206.179 105.935C206.193 105.828 206.243 105.729 206.319 105.654C206.49 105.523 206.693 105.441 206.906 105.417C207.12 105.392 207.336 105.427 207.532 105.516C207.958 105.633 208.326 105.906 208.562 106.282C208.612 106.37 208.636 106.471 208.63 106.572C208.623 106.674 208.587 106.771 208.526 106.852C208.465 106.933 208.381 106.994 208.285 107.027C208.19 107.061 208.086 107.065 207.988 107.04Z" fill="#263238"/>
<path d="M200.757 107.079C201.066 107.016 201.371 106.935 201.67 106.837C202.005 106.795 202.316 106.643 202.557 106.406C202.617 106.317 202.647 106.21 202.641 106.103C202.635 105.995 202.594 105.892 202.524 105.811C202.361 105.669 202.163 105.575 201.951 105.537C201.738 105.499 201.52 105.519 201.318 105.595C200.89 105.67 200.506 105.903 200.242 106.249C200.174 106.332 200.134 106.435 200.127 106.543C200.12 106.65 200.147 106.757 200.203 106.849C200.26 106.941 200.344 107.012 200.444 107.053C200.543 107.095 200.653 107.104 200.757 107.079Z" fill="#263238"/>
<path d="M207.147 115.477C206.977 115.647 206.808 115.876 206.547 115.902C206.281 115.902 206.018 115.841 205.778 115.725C205.778 115.725 205.732 115.725 205.745 115.765C205.849 115.905 205.988 116.015 206.149 116.083C206.309 116.151 206.485 116.174 206.658 116.15C206.805 116.109 206.936 116.025 207.035 115.909C207.134 115.792 207.196 115.648 207.212 115.496C207.225 115.47 207.166 115.451 207.147 115.477Z" fill="#263238"/>
<path d="M206.378 113.338C206.198 113.623 205.962 113.868 205.684 114.058C205.406 114.247 205.091 114.376 204.761 114.437C204.473 114.495 204.179 114.51 203.887 114.483C203.833 114.49 203.778 114.49 203.724 114.483H203.567C203.528 114.475 203.493 114.455 203.466 114.425C203.439 114.396 203.422 114.359 203.417 114.319C203.421 114.293 203.421 114.267 203.417 114.241V114.175C203.417 113.626 203.417 112.782 203.417 112.782C203.215 112.887 202.198 113.358 202.211 113.07C202.256 110.583 202.553 108.107 203.098 105.68C203.098 105.601 203.235 105.621 203.228 105.68C203.228 107.975 202.766 110.258 202.7 112.56C203.064 112.388 203.451 112.27 203.848 112.207C203.926 112.207 203.73 113.822 203.757 114.071C204.207 114.113 204.662 114.064 205.094 113.926C205.525 113.788 205.924 113.563 206.267 113.266C206.365 113.234 206.423 113.279 206.378 113.338Z" fill="#263238"/>
<path d="M204.213 114.201C204.517 114.599 204.92 114.91 205.38 115.104C205.632 115.198 205.907 115.214 206.169 115.15C206.736 114.993 206.749 114.496 206.638 114.018C206.577 113.791 206.49 113.571 206.378 113.364C205.763 113.868 205.005 114.161 204.213 114.201Z" fill="#263238"/>
<path d="M205.38 115.104C205.632 115.198 205.907 115.214 206.169 115.15C206.736 114.993 206.749 114.496 206.638 114.018C206.338 114.032 206.05 114.146 205.822 114.343C205.594 114.54 205.438 114.808 205.38 115.104Z" fill="#FF99BA"/>
<path d="M200.373 102.22C200.757 101.305 201.201 100.389 201.742 100.206C202.283 100.023 202.661 101.35 203.9 101.422C205.576 101.52 206.371 99.9704 208.712 99.7808C212.076 99.5192 213.582 102.325 213.706 107.112C213.817 111.389 216.399 111.769 216.399 111.769C216.399 111.769 217.879 102.325 215.199 99.2249C212.519 96.1249 206.423 94.7973 202.368 97.8188C200.888 98.9175 200.373 102.22 200.373 102.22Z" fill="#263238"/>
<path d="M214.234 110.101C214.234 110.101 216.158 106.452 217.781 107.099C219.405 107.747 218.25 112.835 216.549 113.724C216.34 113.854 216.107 113.94 215.864 113.977C215.621 114.015 215.373 114.002 215.135 113.941C214.897 113.88 214.674 113.772 214.479 113.622C214.284 113.472 214.121 113.284 213.999 113.07L214.234 110.101Z" fill="#C95F50"/>
<path d="M217.409 108.564V108.61C216.223 109.264 215.708 110.519 215.395 111.782C215.452 111.647 215.537 111.525 215.645 111.427C215.754 111.328 215.882 111.254 216.021 111.21C216.161 111.166 216.308 111.152 216.453 111.171C216.598 111.19 216.738 111.24 216.862 111.317C216.869 111.32 216.875 111.325 216.879 111.332C216.883 111.338 216.885 111.346 216.885 111.353C216.885 111.361 216.883 111.368 216.879 111.375C216.875 111.381 216.869 111.386 216.862 111.389C216.632 111.346 216.396 111.376 216.184 111.475C215.973 111.573 215.797 111.735 215.682 111.939C215.49 112.277 215.335 112.634 215.219 113.005C215.173 113.122 214.964 113.09 214.99 112.959C214.762 111.317 215.721 108.924 217.409 108.564Z" fill="#263238"/>
<path d="M225.429 130.61C229.797 140.368 239.46 160.367 236.976 167.888C233.716 177.764 216.653 188.653 212.239 191.707C210.316 193.015 200.744 180.726 201.331 178.293C201.918 175.861 219.854 161.61 220.819 159.981C221.784 158.353 217.729 142.16 217.044 133.102C216.171 121.703 221.726 122.35 225.429 130.61Z" fill="#C95F50"/>
<path d="M196.904 184.892C197.426 183.82 196.865 183.539 194.948 184.467C193.031 185.396 186.289 190.693 184.646 188.175C183.003 185.658 192.64 178.32 195.933 177.018C199.225 175.717 204.995 174.762 204.995 174.762C203.424 176.58 199.988 181.315 196.904 184.892Z" fill="#C95F50"/>
<path d="M216.907 187.888C212.239 192.812 206.736 199.221 199.395 201.327C198.584 201.581 197.712 201.556 196.917 201.255C193.657 202.256 192.19 201.007 192.19 201.007C188.852 201.007 187.541 199.522 187.541 199.522C187.541 199.522 183.681 200.66 182.612 198.437C181.406 195.945 187.059 194.833 189.784 192.322C196.056 186.553 203.365 176.626 205.008 174.762L216.907 187.888Z" fill="#C95F50"/>
<path d="M200.601 190.916C198.783 192.62 196.853 194.2 194.824 195.644C192.505 197.088 190.082 198.356 187.574 199.437C187.496 199.47 187.541 199.581 187.626 199.562C192.672 197.956 197.183 194.993 200.666 190.994C200.757 190.903 200.692 190.831 200.601 190.916Z" fill="#263238"/>
<path d="M204.617 194.238C202.7 195.749 199.31 198.384 192.157 200.968C192.157 200.968 192.157 201.013 192.157 201.007C196.867 199.99 201.202 197.678 204.676 194.33C204.8 194.192 204.728 194.101 204.617 194.238Z" fill="#263238"/>
<path d="M206.743 196.01C203.385 198.463 200.959 199.581 196.963 201.242C196.963 201.242 196.963 201.295 196.963 201.288C201.735 199.895 203.313 198.842 206.867 196.128C206.964 196.023 206.873 195.919 206.743 196.01Z" fill="#263238"/>
<path d="M217.768 145.58L234.068 146.365C234.068 146.365 226.524 130.054 222.984 125.888C218.968 121.193 217.455 124.28 216.96 130.139C216.464 135.999 217.768 145.58 217.768 145.58Z" fill="#FFC100"/>
<path opacity="0.1" d="M217.768 145.58L234.068 146.365C234.068 146.365 226.524 130.054 222.984 125.888C218.968 121.193 217.455 124.28 216.96 130.139C216.464 135.999 217.768 145.58 217.768 145.58Z" fill="black"/>
<path d="M218.505 142.65C220.591 142.467 226.922 142.814 227.972 142.86C228.519 142.86 230.723 143.076 231.271 143.095C231.343 143.095 231.323 143.206 231.271 143.206C230.215 143.167 229.158 143.239 228.102 143.206C227.046 143.174 220.598 143.063 218.511 142.729C218.504 142.725 218.498 142.72 218.494 142.714C218.489 142.707 218.486 142.699 218.486 142.692C218.485 142.684 218.486 142.676 218.49 142.669C218.493 142.661 218.498 142.655 218.505 142.65Z" fill="#263238"/>
<path d="M226.785 132.01C226.753 131.945 226.857 131.899 226.889 131.964C227.685 133.272 228.448 134.58 229.185 135.934C228.968 135.162 228.682 134.411 228.33 133.691C228.33 133.691 228.363 133.638 228.383 133.691C228.819 134.517 229.148 135.396 229.361 136.307C229.876 137.242 230.378 138.177 230.873 139.125C232.125 141.519 233.416 143.913 234.531 146.385C234.543 146.415 234.548 146.447 234.544 146.48C234.54 146.512 234.528 146.542 234.509 146.569C234.49 146.595 234.465 146.616 234.436 146.629C234.406 146.643 234.374 146.649 234.342 146.646C233.775 146.601 233.214 146.535 232.653 146.457C232.594 146.457 232.588 146.352 232.653 146.346C233.123 146.306 233.586 146.3 234.055 146.287C232.751 144.004 231.623 141.65 230.417 139.328C229.211 137.006 227.939 134.462 226.785 132.01Z" fill="#263238"/>
<path d="M216.79 138.648C216.621 137.804 216.444 136.961 216.301 136.11C216.451 136.725 216.588 137.347 216.725 137.968C216.653 136.699 216.607 135.437 216.62 134.175H216.653C216.914 136.071 217.07 137.987 217.305 139.891C217.54 141.794 217.703 143.631 217.879 145.502C218.244 145.58 218.616 145.646 218.987 145.711C218.999 145.715 219.009 145.723 219.016 145.733C219.023 145.743 219.027 145.755 219.027 145.767C219.027 145.779 219.023 145.791 219.016 145.801C219.009 145.811 218.999 145.818 218.987 145.822C218.577 145.822 218.166 145.822 217.755 145.822C217.707 145.83 217.659 145.818 217.62 145.79C217.581 145.762 217.554 145.72 217.546 145.672C217.207 143.337 216.947 140.989 216.79 138.648Z" fill="#263238"/>
<path d="M151.844 230.613H90.1847V281.711H151.844V230.613Z" fill="#FFC100"/>
<path d="M176.268 230.613H151.838V281.717H176.268V230.613Z" fill="#FFC100"/>
<path opacity="0.1" d="M176.268 230.613H151.838V281.717H176.268V230.613Z" fill="black"/>
<path d="M174.586 278.199C172.782 274.562 170.989 270.915 169.207 267.257L163.906 256.27L158.69 245.23C156.952 241.542 155.235 237.836 153.539 234.112C155.348 237.749 157.141 241.396 158.918 245.054L164.213 256.041L169.429 267.081C171.167 270.782 172.886 274.488 174.586 278.199Z" fill="#FFC100"/>
<path d="M174.586 234.132C172.887 237.847 171.17 241.553 169.435 245.25L164.219 256.29L158.925 267.277C157.147 270.939 155.354 274.586 153.546 278.218C155.241 274.503 156.958 270.797 158.697 267.1L163.913 256.061L169.214 245.073C170.991 241.411 172.782 237.764 174.586 234.132Z" fill="#FFC100"/>
<path d="M125.373 241.66H124.402H123.665L123.248 240.803L122.661 241.66L121.872 239.907L121.116 241.66H118.964H117.979L117.627 240.489L117.288 241.66H116.649V230.613H125.373V241.66Z" fill="white"/>
<path d="M212.063 230.613H166.064V281.711H212.063V230.613Z" fill="#FFC100"/>
<path d="M235.815 230.613H212.063V281.711H235.815V230.613Z" fill="#FFC100"/>
<path opacity="0.1" d="M235.815 230.613H212.063V281.711H235.815V230.613Z" fill="black"/>
<g opacity="0.1">
<path d="M208.692 278.192C205.315 274.56 201.968 270.915 198.651 267.257L188.754 256.27L178.974 245.23C175.727 241.542 172.519 237.836 169.35 234.112C172.728 237.749 176.075 241.394 179.391 245.047L189.289 256.041L199.069 267.081C202.311 270.778 205.519 274.482 208.692 278.192Z" fill="black"/>
<path d="M208.692 234.132C205.515 237.847 202.307 241.553 199.069 245.25L189.289 256.29L179.391 267.277C176.079 270.935 172.732 274.58 169.35 278.212C172.528 274.506 175.736 270.8 178.974 267.094L188.754 256.054L198.651 245.061C201.964 241.411 205.31 237.769 208.692 234.132Z" fill="black"/>
</g>
<path d="M232.471 273.065H228.311V278.957H232.471V273.065Z" fill="white"/>
<path d="M152.979 197.567H100.46V230.607H152.979V197.567Z" fill="#FFC100"/>
<path opacity="0.1" d="M152.979 197.567H100.46V230.607H152.979V197.567Z" fill="black"/>
<path d="M176.738 197.573H152.985V230.62H176.738V197.573Z" fill="#FFC100"/>
<path opacity="0.2" d="M176.738 197.573H152.985V230.62H176.738V197.573Z" fill="black"/>
<path d="M175.101 228.665C173.341 226.397 171.602 224.117 169.885 221.824L164.728 214.944L159.642 208.037C157.951 205.727 156.282 203.411 154.635 201.092C156.373 203.368 158.112 205.648 159.851 207.933L165.002 214.813L170.087 221.726C171.778 224.028 173.449 226.341 175.101 228.665Z" fill="#FFC100"/>
<path d="M175.101 201.092C173.445 203.411 171.774 205.727 170.087 208.037L165.002 214.944L159.851 221.824C158.112 224.113 156.373 226.393 154.635 228.665C156.282 226.341 157.951 224.028 159.642 221.726L164.728 214.813L169.885 207.933C171.598 205.644 173.336 203.363 175.101 201.092Z" fill="#FFC100"/>
<path d="M122.25 57.2512C121.977 59.8718 120.983 62.3648 119.38 64.4519C117.777 66.539 115.626 68.1381 113.17 69.0708C110.713 70.0035 108.046 70.233 105.467 69.7338C102.888 69.2346 100.497 68.0262 98.5629 66.2437L91.4756 67.2835L95.0225 61.1359C94.1348 58.968 93.8009 56.6121 94.051 54.282C94.4427 50.5311 96.3038 47.0899 99.2249 44.7154C102.146 42.341 105.888 41.2277 109.627 41.6206C113.367 42.0134 116.797 43.8802 119.165 46.8103C121.532 49.7404 122.642 53.4937 122.25 57.2446V57.2512Z" fill="white"/>
<path d="M122.25 57.2512C121.969 59.8665 120.979 62.3547 119.388 64.4452C118.983 64.9638 118.548 65.4574 118.084 65.9232C117.611 66.3892 117.11 66.826 116.584 67.2312C114.479 68.8221 111.977 69.7977 109.353 70.0499C108.703 70.1113 108.05 70.1244 107.397 70.0892C106.741 70.0737 106.087 70.0059 105.441 69.8864C102.834 69.3931 100.415 68.1841 98.452 66.3941L98.6215 66.4464L91.5343 67.532L91.0257 67.6171L91.28 67.1593L94.8073 60.9986V61.2406C93.9737 59.2072 93.6168 57.009 93.7642 54.8154C93.9115 52.6218 94.5592 50.4915 95.6573 48.5888C96.7554 46.686 98.2745 45.0617 100.098 43.8411C101.921 42.6204 103.999 41.8361 106.172 41.5486C108.318 41.2468 110.505 41.4436 112.564 42.124C114.622 42.8044 116.497 43.95 118.045 45.4726C119.589 46.9886 120.769 48.8364 121.498 50.8767C122.226 52.917 122.484 55.0966 122.25 57.2512ZM122.25 57.2512C122.479 55.1087 122.214 52.9421 121.476 50.9186C120.737 48.8952 119.545 47.0691 117.991 45.5812C116.437 44.0934 114.563 42.9837 112.514 42.3378C110.465 41.6919 108.295 41.527 106.172 41.856C104.064 42.1689 102.057 42.9632 100.304 44.1777C98.5727 45.397 97.1266 46.9791 96.0657 48.8146C95.0201 50.6579 94.4049 52.7151 94.2662 54.8314C94.1348 56.9446 94.4756 59.0605 95.2637 61.0247L95.3159 61.149L95.2442 61.2667L91.6777 67.4078L91.4234 67.0285L98.5368 66.054H98.6346L98.7063 66.1194C100.6 67.8972 102.951 69.111 105.494 69.6248C106.128 69.7527 106.771 69.8314 107.417 69.8603C109.363 69.9925 111.315 69.7048 113.142 69.0166C114.365 68.5753 115.517 67.9537 116.558 67.1723C117.081 66.7827 117.582 66.3635 118.058 65.9167C118.522 65.4554 118.957 64.9661 119.362 64.4517C120.968 62.3648 121.968 59.8727 122.25 57.2512Z" fill="#263238"/>
<path d="M106.491 63.8762L100.434 57.7286L102.468 55.7143L106.009 59.3047L113.357 47.7551L115.763 49.292L106.491 63.8762Z" fill="#FFC100"/>
<path d="M60.9229 69.8603C58.5366 69.4417 52.5316 71.4037 50.6408 74.6606C48.75 77.9176 49.1478 83.058 50.204 83.4766C51.2602 83.8951 55.7525 83.3458 58.7648 81.5146C61.777 79.6834 62.103 70.063 60.9229 69.8603Z" fill="#263238"/>
<path d="M60.9294 69.8734C61.0076 69.8734 61.0142 69.7164 60.9294 69.7229C58.856 69.7622 56.6718 70.5601 54.7289 71.2206C53.1117 71.6645 51.6057 72.4443 50.3083 73.5096C49.7073 74.0516 49.2313 74.7186 48.9138 75.4641C48.5962 76.2096 48.4446 77.0157 48.4697 77.826C48.4343 79.7827 48.8965 81.7161 49.8128 83.4439C49.8128 83.4896 49.9302 83.4439 49.9106 83.4439C48.8087 80.03 47.7851 75.8444 51.1038 73.333C53.9204 71.1421 57.6303 70.7432 60.9294 69.8734Z" fill="#263238"/>
<path d="M50.5169 82.561C48.4631 82.9207 43.2667 87.139 42.5365 91.063C41.8062 94.987 45.2618 100.729 46.292 101.108C47.3221 101.488 51.7231 97.5049 53.0923 94.66C54.0051 92.7634 53.0923 90.6313 52.5773 88.5058C51.7688 85.3862 50.856 82.5086 50.5169 82.561Z" fill="#263238"/>
<path d="M54.3051 94.1368C54.7419 90.0885 52.2969 86.2168 50.7712 82.646C50.7712 82.6067 50.693 82.646 50.706 82.646C51.6123 86.0926 53.8421 89.1271 54.0638 92.7634C54.1745 93.8267 54.0285 94.9012 53.6381 95.896C53.2477 96.8909 52.6245 97.7769 51.8209 98.4793C50.3279 99.6958 48.424 100.311 46.6636 101.023C46.5528 101.069 46.6636 101.239 46.7484 101.2C50.2561 99.8985 53.8552 98.3093 54.3051 94.1368Z" fill="#263238"/>
<path d="M50.0866 82.9534C50.105 82.9411 50.1183 82.9227 50.1242 82.9014C50.13 82.8801 50.128 82.8574 50.1184 82.8375C50.1089 82.8176 50.0925 82.8018 50.0723 82.793C50.0521 82.7843 50.0294 82.7831 50.0084 82.7899C47.1331 84.3202 43.684 86.5111 42.2431 89.5718C40.6783 92.8811 42.5365 96.1903 44.1991 99.0418H44.2578C42.6278 96.1445 40.8869 92.5018 42.6864 89.2972C44.2186 86.485 47.3743 84.4379 50.0866 82.9534Z" fill="#263238"/>
<path d="M46.6636 100.611C48.085 101.265 50.2301 103.496 50.856 106.249C51.9122 110.958 53.6466 109.918 58.8952 110.886C63.3288 111.697 64.5415 116.556 62.3507 119.12C62.3507 119.12 63.5309 116.013 60.4991 114.699C56.874 113.129 49.0239 117.315 44.7207 112.547C39.1526 106.386 46.6636 100.611 46.6636 100.611Z" fill="#263238"/>
<path d="M48.6522 102.678C48.5936 102.613 48.6914 102.508 48.7566 102.567C49.3847 103.123 49.9081 103.787 50.3018 104.529C50.8038 105.51 50.8886 106.602 51.3124 107.603C52.4078 110.153 55.5374 109.885 57.8324 109.918C60.8968 109.957 63.4526 111.684 63.8308 114.895C63.8334 114.901 63.8345 114.907 63.8339 114.914C63.8334 114.92 63.8312 114.926 63.8277 114.932C63.8241 114.937 63.8193 114.942 63.8135 114.945C63.8078 114.948 63.8014 114.95 63.7949 114.95C63.7884 114.95 63.7821 114.948 63.7763 114.945C63.7706 114.942 63.7658 114.937 63.7622 114.932C63.7587 114.926 63.7565 114.92 63.756 114.914C63.7554 114.907 63.7565 114.901 63.7591 114.895C63.6216 113.917 63.223 112.995 62.6055 112.225C61.988 111.456 61.1745 110.869 60.2513 110.526C58.4192 109.872 56.4306 110.389 54.5594 110.049C53.2554 109.82 51.9514 109.349 51.2994 108.145C50.992 107.457 50.7581 106.738 50.6017 106C50.2482 104.743 49.5767 103.598 48.6522 102.678Z" fill="#263238"/>
<path d="M45.8943 101.233C45.8943 101.233 45.966 101.233 45.9399 101.278C44.3099 103.09 42.5821 104.915 42.23 107.446C41.8454 110.166 43.3841 112.782 45.5879 114.287C48.0589 115.974 50.5365 114.941 53.151 114.287C55.0353 113.803 56.9718 113.462 58.8821 114.012C58.9408 114.012 58.8821 114.123 58.8821 114.116C55.8242 113.587 53.1119 114.646 50.1779 115.3C49.0887 115.568 47.9462 115.523 46.8816 115.169C45.817 114.815 44.8737 114.167 44.16 113.299C40.4566 109.342 42.2887 104.47 45.8943 101.233Z" fill="#263238"/>
<path d="M59.019 67.7675C58.3214 66.9565 57.063 68.0552 57.7802 68.8662C58.4974 69.6772 59.7102 68.5719 59.019 67.7675Z" fill="#FFC100"/>
<path d="M59.7167 69.1343C59.0256 68.3299 57.7607 69.4286 58.4844 70.2331C59.2081 71.0375 60.4143 69.978 59.7167 69.1343Z" fill="#FFC100"/>
<path d="M60.636 70.3769C59.9383 69.5725 58.68 70.6647 59.3972 71.4757C60.1144 72.2866 61.3467 71.1879 60.636 70.3769Z" fill="#FFC100"/>
<path d="M61.7118 71.4495C61.0207 70.6451 59.7558 71.7438 60.4795 72.5482C61.2032 73.3526 62.4094 72.2605 61.7118 71.4495Z" fill="#FFC100"/>
<path d="M62.9702 72.3455C62.2725 71.5411 61.0142 72.6398 61.7314 73.4442C62.4486 74.2486 63.6613 73.1564 62.9702 72.3455Z" fill="#FFC100"/>
<path d="M64.3133 72.9799C63.6157 72.1754 62.3573 73.2676 63.0745 74.0786C63.7917 74.8895 65.0044 73.7908 64.3133 72.9799Z" fill="#FFC100"/>
<path d="M115.019 289.892C113.513 290.363 69.4967 289.408 67.8928 288.336C67.2734 287.937 71.0484 246.113 71.0484 246.113L98.9606 246.65L95.7853 274.621C95.7853 274.621 112.027 282.345 113.67 283.712C115.313 285.079 116.532 289.421 115.019 289.892Z" fill="#D3766A"/>
<path d="M115.026 289.892C113.52 290.363 69.4967 289.408 67.8928 288.329C67.6972 288.211 67.6385 283.96 68.3426 278.434C76.3231 279.775 104.809 284.163 107.032 282.855C108.578 281.939 107.208 280.514 105.937 279.585C109.575 281.403 112.972 283.149 113.67 283.738C115.306 285.079 116.525 289.428 115.026 289.892Z" fill="#263238"/>
<path d="M96.5742 267.918L69.1902 267.532C69.1902 267.532 74.6149 201.694 74.4062 200.425C74.0802 198.816 54.6376 122.331 54.6376 122.331H80.7958C80.7958 122.331 101.419 193.617 102.162 200.477C103.362 211.569 96.5742 267.918 96.5742 267.918Z" fill="#37474F"/>
<path d="M71.6287 261.325C73.2522 261.208 74.8887 261.227 76.5122 261.208C78.1357 261.188 79.7722 261.208 81.3892 261.208C84.6492 261.24 87.9092 261.293 91.1692 261.384C92.0559 261.384 92.9426 261.436 93.8358 261.476C94.7291 261.515 95.7332 261.685 96.6786 261.718C96.6941 261.718 96.7091 261.724 96.7201 261.735C96.7311 261.746 96.7372 261.761 96.7372 261.777C96.7372 261.792 96.7311 261.807 96.7201 261.818C96.7091 261.829 96.6941 261.835 96.6786 261.835C95.8766 261.835 95.0812 261.96 94.2792 261.986C93.4773 262.012 92.6231 261.986 91.7951 261.986H86.9181C83.6581 261.986 80.3981 261.914 77.1707 261.783C75.3386 261.705 73.4869 261.685 71.6613 261.495C71.6389 261.5 71.6156 261.495 71.5966 261.482C71.5777 261.469 71.5646 261.449 71.5603 261.427C71.5559 261.404 71.5607 261.381 71.5736 261.362C71.5864 261.343 71.6063 261.33 71.6287 261.325Z" fill="#263238"/>
<path d="M60.3948 128.511C62.7355 136.823 64.874 145.208 66.9669 153.585C69.0599 161.963 71.1528 170.354 73.2327 178.738C74.2759 182.937 75.3169 187.131 76.3557 191.321C77.3663 195.402 78.5465 199.509 78.7942 203.747C79.042 207.985 78.5073 212.36 78.1422 216.631C77.7771 220.902 77.425 225.211 77.0469 229.508C76.2971 238.089 75.5799 246.682 74.6475 255.25C74.5367 256.322 74.4193 257.395 74.3085 258.467C74.3085 258.559 74.1585 258.559 74.165 258.467C74.7323 249.874 75.3256 241.287 76.0102 232.706C76.3492 228.412 76.697 224.119 77.0534 219.829C77.4055 215.545 77.901 211.242 78.0379 206.945C78.1748 202.648 77.3859 198.443 76.3427 194.271C75.2995 190.098 74.2889 186.063 73.2653 181.956C71.1702 173.58 69.0838 165.196 67.0061 156.803C64.6849 147.412 62.3638 138.007 60.3165 128.55C60.314 128.545 60.3124 128.539 60.312 128.534C60.3116 128.528 60.3123 128.522 60.3142 128.517C60.316 128.511 60.3189 128.506 60.3226 128.502C60.3264 128.498 60.331 128.494 60.3361 128.491C60.3412 128.489 60.3468 128.487 60.3526 128.487C60.3583 128.486 60.364 128.487 60.3695 128.489C60.3749 128.491 60.38 128.494 60.3843 128.497C60.3887 128.501 60.3922 128.506 60.3948 128.511Z" fill="#263238"/>
<path d="M54.6376 122.337C54.6376 122.337 62.9832 155.142 68.8186 178.235L79.9482 122.337H54.6376Z" fill="#263238"/>
<path d="M82.152 289.99C80.6459 290.468 36.6294 289.513 35.0254 288.434C34.406 288.035 36.7011 246.192 36.7011 246.192L64.2481 246.728L62.9441 274.726C62.9441 274.726 79.1854 282.443 80.8284 283.816C82.4715 285.19 83.6581 289.526 82.152 289.99Z" fill="#D3766A"/>
<path d="M82.152 289.99C80.6459 290.461 36.6294 289.513 35.0254 288.434C34.8298 288.309 34.8755 284.176 35.0254 278.532C43.0059 279.873 71.9352 284.268 74.1454 282.953C75.6907 282.044 74.328 280.618 73.0566 279.683C76.6948 281.501 80.0917 283.254 80.7893 283.843C82.4324 285.177 83.6581 289.526 82.152 289.99Z" fill="#263238"/>
<path d="M79.9482 122.298C79.9482 122.298 79.1854 134.842 76.1992 144.75C75.958 145.567 75.6972 146.372 75.4234 147.143C72.7832 148.172 70.2428 149.442 67.8341 150.937C67.8341 150.937 65.9498 198.914 65.9824 201.896C66.1063 213.073 63.244 267.368 63.244 267.368L35.6057 267.1C35.6057 267.1 38.4745 205.703 38.4876 201.622C38.4876 195.082 44.2838 122.331 44.2838 122.331L79.9482 122.298Z" fill="#37474F"/>
<path d="M73.9107 139.171L74.2237 137.091C74.4193 135.783 74.6801 134.554 74.8757 133.285C75.3777 130.414 75.9058 127.53 76.5383 124.679C76.5383 124.613 76.6752 124.626 76.6622 124.679C76.5513 125.83 76.4209 126.981 76.2579 128.125C76.0949 129.27 75.9841 130.421 75.8211 131.565C75.5016 133.835 75.1691 136.143 74.804 138.373C74.654 139.243 74.1128 140.806 75.3647 141.074C76.3492 141.29 77.0794 140.316 77.3663 139.498C77.6714 138.472 77.8895 137.422 78.0183 136.359C78.227 135.214 78.403 134.063 78.566 132.912C78.9181 130.401 79.3093 127.896 79.7135 125.398C79.7135 125.326 79.8439 125.346 79.8374 125.398C79.783 127.969 79.598 130.536 79.2832 133.089C79.1202 134.312 78.9442 135.528 78.7355 136.745C78.6107 137.912 78.3277 139.056 77.8944 140.146C77.7185 140.576 77.4366 140.955 77.0752 141.247C76.7137 141.538 76.2845 141.733 75.8276 141.813H75.7689C75.781 141.821 75.7909 141.832 75.7977 141.844C75.8045 141.857 75.8081 141.871 75.808 141.885C75.808 142.297 75.808 142.709 75.7624 143.115C75.7168 143.52 75.6385 143.913 75.5603 144.312C75.4874 144.718 75.3849 145.118 75.2538 145.508C75.1821 145.692 75.1169 145.875 75.0322 146.058C74.9474 146.241 74.817 146.385 74.7062 146.561C74.667 146.633 74.5823 146.561 74.5758 146.516C74.5758 146.45 74.5758 146.385 74.5758 146.319C74.5693 146.202 74.5693 146.084 74.5758 145.966C74.6048 145.77 74.644 145.576 74.6931 145.384C74.7779 144.998 74.8822 144.612 74.9865 144.227C75.0908 143.841 75.1691 143.461 75.2669 143.076C75.3647 142.69 75.5016 142.297 75.5929 141.898C75.5929 141.898 75.5929 141.898 75.5929 141.859C75.2246 141.877 74.8598 141.781 74.5475 141.585C74.2351 141.388 73.9902 141.101 73.8455 140.76C73.7332 140.234 73.7556 139.687 73.9107 139.171Z" fill="#263238"/>
<path d="M65.5977 151.918C66.4256 151.283 67.2971 150.709 68.2057 150.198C69.1592 149.618 70.1503 149.102 71.1723 148.654C73.1675 147.784 75.2278 147.189 77.2946 146.509C77.3533 146.509 77.3924 146.588 77.3337 146.614C75.3386 147.412 73.4217 148.471 71.4657 149.419C70.5138 149.886 69.5532 150.322 68.5839 150.727C67.6189 151.159 66.6279 151.663 65.6564 152.035C65.5977 152.081 65.5391 151.963 65.5977 151.918Z" fill="#263238"/>
<path d="M50.0019 134.443C51.4082 134.426 52.8073 134.237 54.1682 133.88C54.8202 133.717 55.4135 133.514 56.0264 133.311C56.6365 133.143 57.2079 132.856 57.7085 132.468C58.6539 131.644 59.0973 130.355 59.508 129.198C59.9571 127.915 60.3208 126.604 60.5969 125.274C60.5969 125.258 60.6031 125.243 60.6141 125.232C60.6251 125.221 60.64 125.215 60.6555 125.215C60.6711 125.215 60.686 125.221 60.697 125.232C60.7081 125.243 60.7142 125.258 60.7142 125.274C60.7476 126.789 60.5564 128.301 60.147 129.76C59.808 130.996 59.3516 132.376 58.354 133.246C57.2465 134.081 55.9168 134.568 54.5333 134.646C53.0158 134.825 51.4816 134.805 49.9693 134.587C49.9558 134.578 49.9452 134.565 49.9392 134.55C49.9331 134.535 49.9317 134.519 49.9353 134.503C49.9389 134.488 49.9472 134.473 49.9591 134.462C49.971 134.452 49.9859 134.445 50.0019 134.443Z" fill="#263238"/>
<path d="M40.9195 233.347C41.389 224.592 41.8845 215.833 42.4061 207.069C43.4102 189.64 44.3621 172.205 45.477 154.749C46.129 144.939 46.7288 135.084 47.4982 125.261C47.5033 125.243 47.5139 125.227 47.5287 125.216C47.5434 125.205 47.5613 125.199 47.5797 125.199C47.5981 125.199 47.616 125.205 47.6307 125.216C47.6454 125.227 47.6561 125.243 47.6612 125.261C46.944 142.834 45.9008 160.348 44.8902 177.888C43.8796 195.428 42.8494 212.733 41.728 230.156C41.1412 240.018 40.3653 249.828 39.772 259.638C39.7751 259.647 39.776 259.656 39.7747 259.666C39.7734 259.675 39.7698 259.684 39.7644 259.691C39.759 259.699 39.7518 259.705 39.7435 259.71C39.7352 259.714 39.7259 259.716 39.7166 259.716C39.7072 259.716 39.698 259.714 39.6897 259.71C39.6813 259.705 39.6742 259.699 39.6687 259.691C39.6633 259.684 39.6598 259.675 39.6585 259.666C39.6572 259.656 39.6581 259.647 39.6612 259.638C40.111 250.874 40.424 242.111 40.9195 233.347Z" fill="#263238"/>
<path d="M36.8575 261.731C38.4745 261.613 40.1175 261.633 41.7345 261.613C43.3515 261.593 44.9945 261.613 46.6115 261.613C49.8715 261.646 53.1315 261.698 56.3915 261.79C57.2782 261.79 58.1714 261.842 59.0581 261.881C59.9449 261.92 60.9555 262.09 61.9009 262.123C61.9164 262.123 61.9314 262.129 61.9424 262.14C61.9534 262.151 61.9595 262.166 61.9595 262.182C61.9595 262.198 61.9534 262.213 61.9424 262.224C61.9314 262.235 61.9164 262.241 61.9009 262.241C61.1054 262.241 60.3035 262.365 59.5015 262.391C58.6995 262.417 57.8454 262.391 57.0174 262.391C55.3939 262.391 53.7574 262.391 52.1469 262.391C48.8869 262.391 45.6269 262.326 42.3669 262.189C40.5283 262.11 38.6766 262.09 36.851 261.907C36.8395 261.907 36.8281 261.904 36.8176 261.899C36.8071 261.895 36.7976 261.888 36.7897 261.879C36.7819 261.871 36.7757 261.861 36.7717 261.85C36.7677 261.839 36.7658 261.827 36.7663 261.816C36.7667 261.804 36.7694 261.793 36.7742 261.782C36.779 261.772 36.7859 261.762 36.7944 261.754C36.8028 261.746 36.8128 261.74 36.8236 261.736C36.8345 261.732 36.846 261.73 36.8575 261.731Z" fill="#263238"/>
<path d="M68.8708 93.9471C71.5244 100.553 82.0672 121.906 88.9915 123.416C93.5555 124.404 111.896 122.618 115.071 118.263C116.447 116.366 114.12 103.129 111.668 103.652C109.217 104.176 94.5009 106.131 92.6948 105.614C90.8888 105.098 77.3402 89.4411 72.2742 85.5563C63.5374 78.8463 67.4429 90.3893 68.8708 93.9471Z" fill="#D3766A"/>
<path d="M84.936 97.2106L73.3956 104.058C73.3956 104.058 68.5382 94.7842 66.6409 88.7151C64.7436 82.646 66.3736 79.873 73.337 85.9094C77.4293 89.4358 81.3029 93.2099 84.936 97.2106Z" fill="#FFC100"/>
<path d="M72.9001 101.677C74.4301 100.566 75.9884 99.4908 77.575 98.4532C78.3508 97.943 79.1267 97.4198 79.9156 96.9293C80.7046 96.4388 81.5848 95.9614 82.3998 95.4513C82.4052 95.4461 82.4117 95.4422 82.4188 95.4397C82.426 95.4373 82.4335 95.4364 82.441 95.4372C82.4485 95.438 82.4557 95.4404 82.4622 95.4442C82.4687 95.4481 82.4743 95.4533 82.4785 95.4595C82.4828 95.4657 82.4857 95.4727 82.487 95.4802C82.4883 95.4876 82.488 95.4952 82.4861 95.5025C82.4842 95.5098 82.4807 95.5166 82.476 95.5225C82.4712 95.5283 82.4652 95.533 82.4584 95.5363C81.6891 96.0595 80.9588 96.635 80.1895 97.1648C79.4201 97.6945 78.5856 98.2243 77.7836 98.7475C76.2014 99.7851 74.591 100.786 72.9523 101.749C72.9066 101.775 72.8545 101.71 72.9001 101.677Z" fill="#263238"/>
<path d="M84.3297 130.722L81.7217 115.961C81.7217 115.961 85.7315 108.943 83.4038 103.901C82.2302 101.35 71.9286 85.4713 67.5928 82.319C63.5243 79.3564 57.6172 82.5217 55.42 84.8434C46.944 93.7901 44.6881 110.291 41.6497 134.475L84.3297 130.722Z" fill="#FFC100"/>
<path d="M84.108 105.366C83.7862 104.304 83.3118 103.295 82.6997 102.371C82.4976 102.024 82.0477 101.305 81.5 100.467C81.3474 100.064 81.1733 99.6686 80.9784 99.2837C80.6569 98.7162 80.3674 98.1311 80.1112 97.531C80.1112 97.4722 79.9939 97.531 80.0265 97.5703C80.2994 98.1439 80.5431 98.7311 80.7567 99.3295C79.8374 97.93 78.8724 96.4912 78.4552 95.9026C78.4552 95.8502 78.3443 95.9026 78.3769 95.9483C79.2571 97.1059 82.1455 102.181 82.8431 103.469C83.5157 104.742 83.863 106.162 83.8537 107.603C83.8365 109.096 83.6439 110.582 83.28 112.03C83.2408 112.148 83.3647 112.213 83.4104 112.096C83.8352 111.049 84.1117 109.949 84.2319 108.826C84.3988 107.674 84.3568 106.502 84.108 105.366Z" fill="#263238"/>
<path d="M66.8496 95.2486C66.8496 95.2486 64.2416 92.3513 66.3736 90.736C68.5056 89.1206 70.579 92.4037 70.579 92.4037L66.8496 95.2486Z" fill="#455A64"/>
<path d="M87.0289 114.064L87.6809 117.825L87.8961 119.061L86.7551 118.531L83.3126 116.916L66.7778 95.1308L70.5073 92.2859L87.042 114.071L87.0289 114.064Z" fill="#455A64"/>
<path d="M87.6679 117.825L87.8831 119.061L86.7421 118.531L87.6679 117.825Z" fill="#37474F"/>
<path d="M70.7072 91.9287L66.3552 95.2531L67.0109 96.1168L71.3629 92.7924L70.7072 91.9287Z" fill="#263238"/>
<path d="M71.4346 92.8855L67.0825 96.2099L67.7382 97.0736L72.0903 93.7492L71.4346 92.8855Z" fill="#263238"/>
<path d="M67.7428 97.0732L69.1446 96.0007L74.3541 104.47L73.8129 104.836L67.7428 97.0732Z" fill="#263238"/>
<path d="M51.508 89.598C41.076 102.678 29.7116 124.437 35.3971 128.576C40.6131 132.35 58.3931 127.347 69.4576 122.193C71.5635 121.212 61.6336 102.573 59.495 103.881C57.2495 105.257 54.9193 106.489 52.5186 107.57C51.9057 107.779 55.0614 103.391 58.2366 93.11C61.4706 82.6329 57.4868 82.0705 51.508 89.598Z" fill="#D3766A"/>
<path d="M86.9768 100.716C87.1268 102.94 81.6239 102.841 81.6239 102.841C82.4562 103.321 83.0951 104.078 83.4299 104.98C83.945 106.595 81.6434 108.113 81.6434 108.113C82.4019 108.791 82.9402 109.682 83.1887 110.67C83.5277 112.266 81.4218 114.13 81.4218 114.13C81.7785 115.137 81.7599 116.241 81.3696 117.236C80.2286 119.852 75.8537 120.173 73.187 120.912C70.2079 121.794 67.3038 122.914 64.5024 124.26L58.2432 104.568C58.2432 104.568 69.5293 96.8639 72.8154 96.8182C75.5864 96.792 86.7486 97.3087 86.9768 100.716Z" fill="#D3766A"/>
<path d="M81.5717 102.776C78.6247 102.122 75.5146 102.122 72.5219 102.233C72.5081 102.233 72.4948 102.239 72.4851 102.249C72.4753 102.258 72.4698 102.272 72.4698 102.286C72.4698 102.299 72.4753 102.313 72.4851 102.323C72.4948 102.332 72.5081 102.338 72.5219 102.338C75.5016 102.227 78.5855 102.913 81.5587 102.92C81.5681 102.921 81.5776 102.92 81.5866 102.917C81.5956 102.914 81.604 102.91 81.6113 102.904C81.6186 102.897 81.6246 102.89 81.629 102.882C81.6333 102.873 81.636 102.864 81.6369 102.855C81.6378 102.845 81.6368 102.836 81.6339 102.827C81.6311 102.817 81.6266 102.809 81.6205 102.802C81.6145 102.795 81.607 102.788 81.5987 102.784C81.5903 102.78 81.5811 102.777 81.5717 102.776Z" fill="#263238"/>
<path d="M81.5522 107.91C80.8662 107.818 80.1712 107.818 79.4853 107.91C78.7551 107.969 78.0314 108.034 77.3011 108.113C75.8472 108.27 74.3932 108.466 72.9523 108.695C72.8871 108.695 72.8871 108.806 72.9523 108.799C74.4062 108.649 75.8602 108.512 77.3142 108.42C78.0444 108.374 78.7746 108.329 79.4984 108.296C80.1902 108.306 80.8811 108.24 81.5587 108.1C81.5764 108.091 81.5912 108.077 81.6013 108.06C81.6114 108.042 81.6164 108.023 81.6157 108.003C81.615 107.983 81.6087 107.964 81.5974 107.947C81.5862 107.931 81.5705 107.918 81.5522 107.91Z" fill="#263238"/>
<path d="M81.3631 114.123C80.7418 114.056 80.1137 114.093 79.5049 114.234L77.5489 114.483C76.2449 114.64 74.8952 114.797 73.5652 114.908C73.5 114.908 73.5065 115.019 73.5652 115.012C74.9148 114.908 76.271 114.816 77.6206 114.699C78.2726 114.646 78.9246 114.581 79.5766 114.515C80.1869 114.516 80.7922 114.405 81.3631 114.188C81.3685 114.185 81.3729 114.18 81.3759 114.174C81.379 114.169 81.3806 114.162 81.3806 114.156C81.3806 114.149 81.379 114.143 81.3759 114.137C81.3729 114.131 81.3685 114.127 81.3631 114.123Z" fill="#263238"/>
<path d="M54.6246 106.151L43.3058 98.9567C43.3058 98.9567 49.3499 90.4155 53.8813 85.9683C58.4127 81.5211 61.614 81.7173 59.4103 90.6836C58.1306 95.9323 56.5324 101.098 54.6246 106.151Z" fill="#FFC100"/>
<path d="M45.1966 97.446C46.8788 98.318 48.5392 99.2227 50.1779 100.16C50.9864 100.624 51.8014 101.082 52.5968 101.566C53.3923 102.05 54.2138 102.613 55.0353 103.11C55.094 103.149 55.0353 103.24 54.9897 103.208C54.1747 102.756 53.3271 102.364 52.5121 101.9C51.6971 101.435 50.843 100.951 50.0149 100.467C48.3719 99.5257 46.7549 98.5382 45.1575 97.5114C45.1119 97.446 45.151 97.3937 45.1966 97.446Z" fill="#263238"/>
<path d="M54.6246 106.21C55.1657 104.3 55.9286 102.469 56.5806 100.592C57.2326 98.7148 57.8846 96.8051 58.4322 94.9019C58.4296 94.896 58.4286 94.8894 58.4291 94.883C58.4297 94.8765 58.4318 94.8702 58.4354 94.8648C58.4389 94.8593 58.4438 94.8548 58.4495 94.8517C58.4552 94.8486 58.4616 94.847 58.4681 94.847C58.4746 94.847 58.481 94.8486 58.4867 94.8517C58.4924 94.8548 58.4973 94.8593 58.5008 94.8648C58.5044 94.8702 58.5065 94.8765 58.5071 94.883C58.5076 94.8894 58.5065 94.896 58.504 94.9019C58.2692 95.8633 58.0541 96.8639 57.7868 97.7926C57.6564 98.2635 57.5064 98.7409 57.3564 99.2053C57.4542 99.0352 57.5455 98.8652 57.6498 98.6951C57.9679 98.1936 58.3117 97.709 58.68 97.2433C58.68 97.2433 58.7387 97.2433 58.7256 97.276C58.468 97.8114 58.183 98.3332 57.8715 98.839C57.6498 99.2053 57.4021 99.5584 57.1674 99.9181L56.887 100.716C56.3371 102.616 55.6147 104.461 54.7289 106.229C54.6963 106.295 54.6115 106.268 54.6246 106.21Z" fill="#263238"/>
<path d="M52.0752 107.701C49.1869 109.205 45.9204 111.435 44.2512 113.201C44.1991 113.253 44.2512 113.338 44.3164 113.292C45.9856 111.984 50.9408 108.95 52.2187 108.093C52.6164 107.825 52.9033 107.256 52.0752 107.701Z" fill="#263238"/>
<path d="M102.853 124.62L79.7983 125.117L89.9304 95.2159L112.985 94.7188L102.853 124.62Z" fill="#EBEBEB"/>
<path d="M104.431 124.587L81.3761 125.078L91.5082 95.1832L114.563 94.6861L104.431 124.587Z" fill="#37474F"/>
<path d="M93.9597 95.1308C93.8112 95.6517 93.4646 96.0932 92.9948 96.3604C92.7796 96.4846 92.7144 96.1969 92.9296 96.0791C93.2285 95.9043 93.4586 95.6319 93.5816 95.3074C93.5816 95.2486 93.6207 95.1897 93.6337 95.1374C93.6821 94.953 93.6821 94.7593 93.6337 94.5749C93.6153 94.4941 93.5692 94.4223 93.5033 94.3722H93.4577C93.4063 94.3597 93.3526 94.3597 93.3012 94.3722C93.2012 94.4088 93.1117 94.4695 93.0404 94.5488C92.9509 94.6429 92.8742 94.7484 92.8122 94.8627L92.7144 95.0327V95.072C92.7119 95.0915 92.7119 95.1113 92.7144 95.1308C92.7123 95.146 92.7123 95.1614 92.7144 95.1766H92.3884C92.4608 94.9695 92.5618 94.7736 92.6883 94.5946C92.783 94.4396 92.9102 94.3073 93.0611 94.2068C93.212 94.1062 93.3829 94.0399 93.562 94.0125C93.6923 94.0085 93.8192 94.0542 93.9172 94.1404C94.0152 94.2266 94.077 94.3468 94.0901 94.4768C94.1012 94.7023 94.0564 94.927 93.9597 95.1308Z" fill="#C7C7C7"/>
<path d="M95.7658 95.0916C95.6172 95.6125 95.2707 96.054 94.8008 96.3211C94.5856 96.4454 94.5204 96.1576 94.7356 96.0399C95.0329 95.863 95.2624 95.5913 95.3876 95.2682C95.4089 95.2133 95.4242 95.1563 95.4332 95.0981C95.4847 94.9142 95.4847 94.7196 95.4332 94.5357C95.4121 94.4544 95.3638 94.3828 95.2963 94.333H95.2507C95.1975 94.3172 95.1409 94.3172 95.0877 94.333C94.9877 94.3696 94.8981 94.4302 94.8269 94.5095C94.7057 94.6606 94.5987 94.8226 94.5074 94.9935V95.0327C94.5058 95.0545 94.5058 95.0764 94.5074 95.0981C94.5046 95.1111 94.5046 95.1245 94.5074 95.1374H94.1814C94.2538 94.9303 94.3548 94.7344 94.4813 94.5553C94.576 94.4004 94.7032 94.2681 94.8541 94.1675C95.005 94.067 95.1759 94.0007 95.355 93.9733C95.485 93.9678 95.612 94.0131 95.7093 94.0998C95.8066 94.1864 95.8666 94.3075 95.8766 94.4376C95.8963 94.6615 95.8581 94.8868 95.7658 95.0916Z" fill="#C7C7C7"/>
<path d="M97.5653 95.0524C97.4951 95.3109 97.3742 95.5529 97.2096 95.764C97.045 95.9751 96.8401 96.1512 96.6068 96.2819C96.3917 96.4061 96.3265 96.1184 96.5351 96.0007C96.8334 95.825 97.0633 95.5529 97.1871 95.2289C97.1871 95.1766 97.2197 95.1178 97.2328 95.0589C97.2843 94.875 97.2843 94.6804 97.2328 94.4965C97.2117 94.4151 97.1633 94.3435 97.0958 94.2937C97.0808 94.2971 97.0652 94.2971 97.0502 94.2937C96.997 94.2779 96.9404 94.2779 96.8872 94.2937C96.7872 94.3303 96.6977 94.391 96.6264 94.4703C96.5403 94.5657 96.4659 94.6711 96.4047 94.7842C96.3683 94.8386 96.3356 94.8954 96.3069 94.9543V95C96.3045 95.0196 96.3045 95.0394 96.3069 95.0589C96.3069 95.0589 96.3069 95.0589 96.3069 95.0981H95.9744C96.0497 94.8923 96.1504 94.6967 96.2743 94.5161C96.3718 94.3637 96.4999 94.2333 96.6502 94.1331C96.8006 94.0329 96.9701 93.9651 97.148 93.934C97.2787 93.9285 97.4064 93.9736 97.5048 94.0601C97.6031 94.1465 97.6645 94.2677 97.6761 94.3984C97.6933 94.6222 97.6552 94.8468 97.5653 95.0524Z" fill="#C7C7C7"/>
<path d="M99.3713 95.0131C99.3011 95.2717 99.1802 95.5137 99.0156 95.7248C98.8511 95.9359 98.6461 96.112 98.4129 96.2426C98.1912 96.3669 98.126 96.0791 98.3412 95.9614C98.6401 95.7866 98.8702 95.5142 98.9932 95.1897C99.0135 95.1362 99.0309 95.0816 99.0453 95.0262C99.097 94.8401 99.097 94.6433 99.0453 94.4572C99.0269 94.3764 98.9808 94.3046 98.9149 94.2545H98.8432C98.7901 94.2383 98.7333 94.2383 98.6802 94.2545C98.5808 94.2922 98.4915 94.3527 98.4194 94.4311C98.3313 94.5248 98.2566 94.6305 98.1977 94.745C98.1599 94.8008 98.1272 94.8599 98.0999 94.9216V94.9608C98.0978 94.9804 98.0978 95.0001 98.0999 95.0197C98.0999 95.0197 98.0999 95.0197 98.0999 95.0589H97.7739C97.8491 94.8551 97.9499 94.6617 98.0738 94.4834C98.1685 94.3278 98.2956 94.1947 98.4464 94.0931C98.5972 93.9915 98.7682 93.9238 98.9475 93.8948C99.0782 93.8892 99.206 93.9344 99.3043 94.0208C99.4027 94.1073 99.464 94.2285 99.4756 94.3591C99.4948 94.5824 99.459 94.807 99.3713 95.0131Z" fill="#C7C7C7"/>
<path d="M101.177 94.9804C101.029 95.5013 100.682 95.9428 100.212 96.2099C99.9972 96.3277 99.932 96.0399 100.147 95.9287C100.445 95.7494 100.674 95.4755 100.799 95.1505C100.82 95.097 100.837 95.0424 100.851 94.987C100.9 94.8004 100.9 94.6045 100.851 94.418C100.834 94.3383 100.788 94.2682 100.721 94.2218H100.675C100.624 94.2057 100.57 94.2057 100.519 94.2218C100.419 94.2595 100.33 94.32 100.258 94.3984C100.17 94.4937 100.093 94.5991 100.03 94.7123L99.932 94.8889V94.9281C99.9296 94.9476 99.9296 94.9674 99.932 94.987C99.932 94.987 99.932 94.987 99.932 95.0262H99.606C99.6786 94.8212 99.7795 94.6274 99.906 94.4507C100.003 94.2971 100.131 94.1654 100.281 94.064C100.431 93.9627 100.601 93.8939 100.78 93.8621C100.91 93.8581 101.037 93.9038 101.135 93.99C101.233 94.0761 101.295 94.1964 101.308 94.3264C101.318 94.5518 101.273 94.7762 101.177 94.9804Z" fill="#C7C7C7"/>
<path d="M103.016 94.9412C102.866 95.4611 102.52 95.902 102.051 96.1707C101.836 96.2884 101.771 96.0007 101.986 95.8895C102.285 95.7118 102.515 95.4373 102.638 95.1112C102.659 95.0586 102.674 95.0037 102.683 94.9477C102.735 94.7616 102.735 94.5649 102.683 94.3787C102.664 94.3003 102.618 94.231 102.553 94.1825H102.507C102.454 94.1667 102.398 94.1667 102.344 94.1825C102.246 94.2219 102.157 94.2821 102.084 94.3591C101.998 94.4546 101.923 94.5599 101.862 94.673C101.826 94.7297 101.793 94.7887 101.764 94.8496V94.8889C101.762 94.9084 101.762 94.9282 101.764 94.9477C101.761 94.9606 101.761 94.974 101.764 94.987H101.438C101.511 94.7819 101.612 94.5882 101.738 94.4114C101.835 94.2578 101.963 94.1261 102.113 94.0248C102.264 93.9235 102.433 93.8547 102.612 93.8228C102.742 93.8174 102.869 93.8627 102.966 93.9493C103.063 94.036 103.123 94.1571 103.133 94.2872C103.151 94.5117 103.111 94.7369 103.016 94.9412Z" fill="#C7C7C7"/>
<path d="M104.783 94.9019C104.637 95.4223 104.293 95.8641 103.824 96.1315C103.609 96.2492 103.544 95.968 103.759 95.8502C103.936 95.7522 104.089 95.6175 104.21 95.4551C104.33 95.2926 104.414 95.1063 104.457 94.9085C104.508 94.7223 104.508 94.5257 104.457 94.3395C104.438 94.2591 104.389 94.189 104.32 94.1433H104.274C104.221 94.1275 104.165 94.1275 104.111 94.1433C104.013 94.1826 103.924 94.2429 103.851 94.3199C103.765 94.4153 103.69 94.5207 103.629 94.6338C103.59 94.6927 103.564 94.7515 103.531 94.8104V94.8496C103.529 94.8692 103.529 94.8889 103.531 94.9085C103.531 94.9085 103.531 94.9085 103.531 94.9477H103.199C103.274 94.7439 103.375 94.5505 103.498 94.3722C103.594 94.2179 103.721 94.086 103.872 93.9855C104.023 93.8851 104.193 93.8184 104.372 93.7901C104.502 93.7845 104.629 93.8287 104.727 93.9138C104.825 93.9989 104.887 94.1185 104.9 94.2479C104.914 94.4722 104.874 94.6966 104.783 94.9019Z" fill="#C7C7C7"/>
<path d="M106.589 94.8627C106.518 95.1208 106.396 95.3623 106.232 95.5733C106.068 95.7843 105.863 95.9607 105.631 96.0922C105.409 96.2165 105.344 95.9287 105.559 95.811C105.859 95.6349 106.09 95.3599 106.211 95.0327C106.231 94.9792 106.249 94.9246 106.263 94.8692C106.315 94.6831 106.315 94.4864 106.263 94.3003C106.244 94.2213 106.198 94.1518 106.133 94.1041H106.093C106.041 94.0851 105.983 94.0851 105.93 94.1041C105.829 94.1371 105.738 94.1983 105.67 94.2806C105.58 94.3709 105.505 94.4746 105.448 94.588C105.409 94.6469 105.383 94.7057 105.35 94.7646V94.8038L105.318 94.8627C105.318 94.8627 105.318 94.8627 105.318 94.9019H104.972C105.047 94.6981 105.148 94.5047 105.272 94.3264C105.367 94.1715 105.494 94.0392 105.645 93.9386C105.796 93.8381 105.967 93.7718 106.146 93.7444C106.275 93.7387 106.402 93.7829 106.5 93.868C106.598 93.9531 106.661 94.0727 106.674 94.2022C106.699 94.426 106.67 94.6526 106.589 94.8627Z" fill="#C7C7C7"/>
<path d="M108.395 94.83C108.248 95.3518 107.901 95.794 107.43 96.0595C107.215 96.1838 107.15 95.896 107.365 95.7783C107.665 95.6022 107.896 95.3272 108.017 95C108.037 94.9465 108.055 94.8919 108.069 94.8365C108.117 94.6522 108.117 94.4584 108.069 94.2741C108.051 94.1933 108.004 94.1215 107.939 94.0714H107.893C107.843 94.0523 107.787 94.0523 107.736 94.0714C107.635 94.1044 107.544 94.1656 107.476 94.2479C107.384 94.3406 107.308 94.4464 107.247 94.5619C107.247 94.6142 107.189 94.673 107.15 94.7319V94.7711C107.147 94.7907 107.147 94.8105 107.15 94.83C107.15 94.83 107.15 94.83 107.15 94.8692H106.824C106.898 94.6648 106.998 94.4712 107.124 94.2937C107.218 94.1388 107.345 94.0065 107.496 93.9059C107.647 93.8054 107.818 93.7391 107.997 93.7117C108.127 93.706 108.254 93.7502 108.352 93.8353C108.45 93.9204 108.512 94.04 108.525 94.1695C108.536 94.397 108.492 94.6238 108.395 94.83Z" fill="#C7C7C7"/>
<path d="M110.188 94.7842C110.039 95.3051 109.693 95.7466 109.223 96.0137C109.008 96.138 108.943 95.8502 109.158 95.7325C109.457 95.5548 109.687 95.2804 109.81 94.9543C109.83 94.9008 109.848 94.8462 109.862 94.7908C109.91 94.6064 109.91 94.4127 109.862 94.2283C109.841 94.1487 109.795 94.0777 109.732 94.0256H109.686C109.633 94.0101 109.576 94.0101 109.523 94.0256C109.423 94.0622 109.333 94.1228 109.262 94.2022C109.173 94.2953 109.099 94.4011 109.04 94.5161C109.004 94.5705 108.971 94.6273 108.943 94.6861V94.7254C108.94 94.7449 108.94 94.7647 108.943 94.7842C108.94 94.7971 108.94 94.8105 108.943 94.8235H108.617C108.691 94.619 108.791 94.4255 108.917 94.2479C109.011 94.093 109.138 93.9607 109.289 93.8601C109.44 93.7596 109.611 93.6933 109.79 93.6659C109.919 93.6603 110.045 93.7048 110.142 93.79C110.24 93.8753 110.3 93.9947 110.312 94.1237C110.329 94.3509 110.286 94.5786 110.188 94.7842Z" fill="#C7C7C7"/>
<path d="M112.001 94.745C111.929 95.0031 111.808 95.2446 111.644 95.4556C111.479 95.6666 111.275 95.8429 111.042 95.9745C110.827 96.0988 110.762 95.811 110.977 95.6933C111.153 95.5953 111.307 95.4605 111.427 95.2981C111.548 95.1357 111.632 94.9493 111.675 94.7515C111.726 94.5676 111.726 94.373 111.675 94.1891C111.653 94.1077 111.605 94.0362 111.538 93.9863H111.492C111.439 93.9705 111.382 93.9705 111.329 93.9863C111.229 94.023 111.139 94.0836 111.068 94.1629C110.979 94.256 110.905 94.3618 110.847 94.4768C110.81 94.5312 110.777 94.588 110.749 94.6469V94.6861C110.746 94.7057 110.746 94.7254 110.749 94.745C110.749 94.745 110.749 94.745 110.749 94.7842H110.423C110.492 94.576 110.594 94.3797 110.723 94.2022C110.816 94.0477 110.942 93.9156 111.092 93.8151C111.242 93.7146 111.412 93.648 111.59 93.6201C111.719 93.6144 111.846 93.6587 111.945 93.7438C112.043 93.8289 112.105 93.9484 112.118 94.0779C112.141 94.3069 112.1 94.5377 112.001 94.745Z" fill="#C7C7C7"/>
<path d="M113.807 94.7057C113.735 94.9639 113.614 95.2054 113.45 95.4164C113.285 95.6274 113.081 95.8037 112.848 95.9353C112.626 96.0595 112.561 95.7718 112.776 95.654C113.075 95.4792 113.305 95.2068 113.428 94.8823C113.428 94.8235 113.468 94.7646 113.481 94.7123C113.529 94.5279 113.529 94.3342 113.481 94.1498C113.457 94.0697 113.409 93.9989 113.344 93.9471H113.311H113.272C113.218 93.9343 113.163 93.9343 113.109 93.9471C113.009 93.9837 112.919 94.0443 112.848 94.1237C112.759 94.2163 112.684 94.3222 112.626 94.4376C112.59 94.492 112.557 94.5488 112.529 94.6076V94.6469C112.526 94.6664 112.526 94.6862 112.529 94.7057C112.526 94.7209 112.526 94.7364 112.529 94.7515H112.144C112.219 94.5457 112.32 94.3501 112.444 94.1695C112.539 94.0145 112.666 93.8822 112.817 93.7817C112.968 93.6811 113.139 93.6148 113.318 93.5874C113.448 93.5818 113.576 93.627 113.674 93.7135C113.773 93.7999 113.834 93.9211 113.846 94.0517C113.886 94.2697 113.872 94.4941 113.807 94.7057Z" fill="#C7C7C7"/>
<path d="M113.089 101.448C114.178 104.006 117.041 107.243 117.21 109.296C117.266 109.803 117.159 110.315 116.905 110.756C116.65 111.197 116.261 111.545 115.795 111.749C115.795 111.749 117.797 112.848 117.64 114.738C117.556 115.719 115.932 116.445 115.932 116.445C116.367 116.72 116.718 117.109 116.948 117.57C117.178 118.031 117.277 118.547 117.236 119.061C117.041 120.369 115.443 120.925 115.443 120.925C115.443 120.925 116.519 122.54 115.886 123.835C114.582 126.451 103.068 126.006 101.451 121.677C100.701 119.656 103.512 119.917 103.512 119.917C103.512 119.917 99.5604 118.557 99.5995 116.17C99.6386 113.783 103.264 114.352 103.264 114.352C103.264 114.352 99.4626 113.011 99.756 110.526C100.049 107.949 103.59 109.14 103.59 109.14C103.59 109.14 101.093 107.295 101.738 105.451C102.814 102.41 107.515 106.478 110.077 105.974L111.642 101.834L113.089 101.448Z" fill="#D3766A"/>
<path d="M115.254 105.189C114.433 102.678 117.608 99.7415 117.171 97.2302C116.578 93.8294 112.659 96.9817 111.629 101.847L111.485 105.771L115.254 105.189Z" fill="#D3766A"/>
<path d="M115.221 121.055C115.23 121.055 115.238 121.059 115.244 121.065C115.251 121.071 115.254 121.079 115.254 121.088C115.254 121.097 115.251 121.105 115.244 121.111C115.238 121.117 115.23 121.121 115.221 121.121C111.242 121.942 107.108 121.53 103.368 119.937C103.251 119.885 103.29 119.669 103.427 119.702C107.272 120.727 111.245 121.183 115.221 121.055Z" fill="#263238"/>
<path d="M115.991 116.477C116.036 116.477 116.036 116.549 115.991 116.556C111.595 117.418 107.037 116.676 103.14 114.463C103.003 114.378 102.964 114.175 103.14 114.254C105.839 115.634 112.261 116.647 115.991 116.477Z" fill="#263238"/>
<path d="M103.342 108.891C107.176 111.023 111.303 111.703 115.639 111.795C115.691 111.795 115.684 111.873 115.639 111.886C113.507 112.423 110.749 112.076 108.623 111.625C106.642 111.236 104.797 110.334 103.27 109.009C103.212 108.976 103.264 108.845 103.342 108.891Z" fill="#263238"/>
<path d="M60.147 81.6715C60.31 82.3713 65.363 86.8054 68.5774 86.655C69.614 86.6092 67.8276 81.0306 67.8276 81.0306L67.9254 80.612L69.2294 74.726L62.3508 70.2854L61.3532 69.6968C61.3532 69.6968 61.0989 71.3318 60.8055 73.3657C60.8055 73.4573 60.8055 73.5554 60.7599 73.6535C60.7143 73.7516 60.7208 73.8758 60.7077 73.987C60.6556 74.2879 60.6099 74.6018 60.5708 74.9092C60.5317 75.2165 60.5056 75.3735 60.4795 75.622C60.4535 75.8705 60.4209 76.1125 60.3883 76.361C60.1856 78.1235 60.105 79.8979 60.147 81.6715Z" fill="#D3766A"/>
<path d="M60.8186 73.3657C61.4086 75.0181 62.3498 76.5221 63.577 77.7734C64.8041 79.0246 66.2879 79.9932 67.9254 80.612L69.2294 74.726L62.3508 70.2854L61.3532 69.6968C61.3532 69.6968 61.112 71.3318 60.8186 73.3657Z" fill="#263238"/>
<path d="M78.2921 67.362C77.5032 77.911 71.1201 78.6304 68.8447 78.48C66.7909 78.323 59.8014 77.5252 59.495 66.95C59.1885 56.3748 64.3328 53.4056 69.0598 53.5168C73.7868 53.628 79.0745 56.8064 78.2921 67.362Z" fill="#D3766A"/>
<path d="M59.7754 66.2175C62.2464 66.6426 62.8658 62.7186 62.8658 62.7186C62.8658 62.7186 65.7216 62.9148 66.667 58.3957C67.066 59.3997 67.6918 60.2973 68.495 61.0179C69.2982 61.7385 70.257 62.2624 71.2962 62.5486C72.0851 62.7971 69.7184 60.2596 69.7184 60.2596C69.7184 60.2596 72.4828 63.7323 78.6834 63.595C79.1202 63.595 79.2441 57.055 74.8757 54.125C70.5073 51.1951 66.0476 51.7249 62.6442 54.2362C61.7417 54.5384 60.9272 55.0585 60.2723 55.7508C59.6174 56.443 59.1422 57.2862 58.8886 58.206C57.9693 61.476 58.8104 66.054 59.7754 66.2175Z" fill="#263238"/>
<path d="M61.288 67.1527C61.288 67.1527 59.5276 63.523 57.9237 64.092C56.3197 64.661 57.2717 69.6706 58.8821 70.632C59.083 70.7655 59.3088 70.8569 59.5459 70.9006C59.783 70.9442 60.0264 70.9394 60.2615 70.8862C60.4966 70.833 60.7186 70.7327 60.9141 70.5912C61.1095 70.4498 61.2744 70.2701 61.3988 70.063L61.288 67.1527Z" fill="#D3766A"/>
<path d="M58.2236 65.5177C58.2236 65.5177 58.1845 65.5177 58.2236 65.5635C59.3581 66.2567 59.8145 67.4863 60.0688 68.7354C60.0188 68.6016 59.9404 68.4804 59.8389 68.3803C59.7374 68.2801 59.6154 68.2033 59.4812 68.1554C59.3471 68.1074 59.2042 68.0894 59.0624 68.1026C58.9206 68.1158 58.7835 68.1599 58.6604 68.2318C58.6213 68.2318 58.6604 68.3038 58.6604 68.2972C58.8856 68.2648 59.1152 68.3027 59.3181 68.4056C59.5211 68.5086 59.6875 68.6717 59.7949 68.8727C59.9681 69.2106 60.1058 69.5657 60.2057 69.9322C60.2448 70.0499 60.4534 70.0238 60.4274 69.893V69.8603C60.7142 68.3168 59.8601 65.9494 58.2236 65.5177Z" fill="#263238"/>
<path d="M76.447 65.2823C76.2058 65.2169 75.9906 65.1188 75.795 65.0338C75.5411 64.9809 75.3119 64.8452 75.143 64.6479C75.102 64.5751 75.0862 64.4907 75.098 64.4079C75.1098 64.3251 75.1485 64.2485 75.2082 64.1901C75.343 64.0935 75.5011 64.0347 75.6661 64.0198C75.8312 64.0049 75.9972 64.0343 76.1471 64.1051C76.4736 64.2007 76.7527 64.4153 76.9295 64.7068C76.9711 64.7779 76.9897 64.8601 76.9828 64.9422C76.9759 65.0244 76.9437 65.1023 76.8909 65.1654C76.838 65.2285 76.7669 65.2736 76.6874 65.2945C76.6079 65.3155 76.524 65.3112 76.447 65.2823Z" fill="#263238"/>
<path d="M69.7118 64.2686C69.9472 64.2656 70.1822 64.2504 70.416 64.2228C70.6735 64.2414 70.9301 64.1748 71.1462 64.0331C71.2059 63.9747 71.2446 63.8982 71.2564 63.8154C71.2682 63.7326 71.2524 63.6482 71.2114 63.5753C71.1089 63.4441 70.9731 63.3427 70.8184 63.2818C70.6636 63.2209 70.4954 63.2025 70.3312 63.2287C69.9928 63.2296 69.667 63.358 69.4184 63.5884C69.3623 63.645 69.3244 63.7171 69.3096 63.7955C69.2948 63.8739 69.3038 63.955 69.3353 64.0282C69.3669 64.1015 69.4197 64.1635 69.4868 64.2064C69.5539 64.2492 69.6323 64.2709 69.7118 64.2686Z" fill="#263238"/>
<path d="M70.8333 67.1331C70.8333 67.1004 70.7746 67.1331 70.7681 67.1854C70.7094 67.9048 70.5203 68.7158 69.8422 68.8793V68.9185C70.6442 68.8989 70.8919 67.8198 70.8333 67.1331Z" fill="#263238"/>
<path d="M70.2856 66.3091C69.1446 66.0867 68.786 68.3822 69.8422 68.5915C70.8985 68.8008 71.2375 66.4987 70.2856 66.3091Z" fill="#263238"/>
<path d="M69.8162 66.3614C69.5945 66.4595 69.3598 66.6557 69.1185 66.6426C68.8773 66.6295 68.6621 66.3483 68.5187 66.0932C68.5187 66.0932 68.4796 66.0932 68.473 66.0932C68.3948 66.5314 68.4731 67.0088 68.9555 67.1462C69.438 67.2835 69.7445 66.9369 69.9205 66.4922C69.9531 66.4529 69.9075 66.3221 69.8162 66.3614Z" fill="#263238"/>
<path d="M74.6996 67.7021C74.6996 67.7021 74.7453 67.7413 74.7453 67.7675C74.6018 68.4803 74.5627 69.3109 75.1626 69.651C75.1626 69.651 75.1626 69.6968 75.1626 69.6902C74.3867 69.4548 74.4519 68.343 74.6996 67.7021Z" fill="#263238"/>
<path d="M75.456 67.0612C76.61 67.1658 76.3166 69.4744 75.2473 69.3763C74.178 69.2782 74.4845 66.9761 75.456 67.0612Z" fill="#263238"/>
<path d="M75.9124 67.277C76.0819 67.4209 76.2318 67.6628 76.447 67.7086C76.6622 67.7544 76.9164 67.5255 77.099 67.3097C77.0534 67.7544 76.8512 68.1991 76.447 68.2253C76.0428 68.2514 75.795 67.8394 75.795 67.3882C75.7689 67.362 75.8472 67.2181 75.9124 67.277Z" fill="#263238"/>
<path d="M69.9596 72.8818C70.09 73.078 70.2139 73.3396 70.4616 73.4115C70.724 73.4661 70.9947 73.4661 71.2571 73.4115C71.2571 73.4115 71.2962 73.4115 71.2571 73.4573C71.1272 73.5738 70.9687 73.6534 70.7979 73.6879C70.6271 73.7224 70.4503 73.7105 70.2856 73.6535C70.1486 73.5873 70.0345 73.4816 69.9578 73.35C69.8811 73.2183 69.8454 73.0666 69.8553 72.9145C69.8814 72.8556 69.94 72.8491 69.9596 72.8818Z" fill="#263238"/>
<path d="M73.3044 70.7366C73.3033 71.2675 73.275 71.7979 73.2196 72.3259C73.2196 72.3716 73.0892 72.3782 72.9197 72.3259C72.4783 72.3411 72.0412 72.2345 71.656 72.0177C71.2709 71.8009 70.9525 71.4822 70.7355 71.0963C70.7301 71.0851 70.7288 71.0723 70.732 71.0602C70.7351 71.0481 70.7425 71.0376 70.7527 71.0305C70.763 71.0234 70.7754 71.0202 70.7878 71.0215C70.8002 71.0227 70.8117 71.0284 70.8203 71.0375C71.3961 71.5691 72.1281 71.8995 72.9066 71.9792C72.9588 71.8484 72.8545 70.1219 72.9066 70.1284C73.2887 70.2184 73.6571 70.3592 74.002 70.547C74.0868 68.2907 73.8064 66.0278 73.9238 63.7781C73.9238 63.7607 73.9306 63.7441 73.9429 63.7318C73.9551 63.7196 73.9717 63.7127 73.989 63.7127C74.0063 63.7127 74.0228 63.7196 74.0351 63.7318C74.0473 63.7441 74.0542 63.7607 74.0542 63.7781C74.43 66.1893 74.5633 68.6322 74.4519 71.0702C74.4649 71.3776 73.4934 70.8478 73.3044 70.7366Z" fill="#263238"/>
<path d="M72.6263 72.0446C72.3196 72.3672 71.9358 72.6059 71.5114 72.7379C71.2804 72.8129 71.0317 72.8129 70.8007 72.7379C70.3052 72.5482 70.3378 72.0839 70.4747 71.6849C70.5492 71.4779 70.6477 71.2804 70.7681 71.0963C71.2709 71.6029 71.922 71.9352 72.6263 72.0446Z" fill="#263238"/>
<path d="M71.5114 72.7379C71.2804 72.8129 71.0317 72.8129 70.8007 72.7379C70.3052 72.5482 70.3378 72.0839 70.4747 71.6849C70.7389 71.7217 70.9836 71.8448 71.171 72.0351C71.3584 72.2254 71.478 72.4725 71.5114 72.7379Z" fill="#FF9CBD"/>
<path d="M78.1226 56.898C76.9099 56.6102 70.1682 56.8064 67.1365 58.1144C64.1047 59.4224 58.7257 63.7977 58.4518 64.0004C58.178 64.2032 56.7892 53.0786 65.7998 51.0447C75.632 48.8669 78.1226 56.898 78.1226 56.898Z" fill="#FFC100"/>
<path d="M58.9669 63.5819C58.9669 63.5819 64.9262 55.7339 68.2383 53.8961C71.5505 52.0584 78.9637 51.0774 83.5473 53.1048C87.1268 54.6809 78.3965 59.2982 78.3965 59.2982C78.3162 58.918 78.1482 58.5619 77.9059 58.2586C77.6636 57.9554 77.3537 57.7134 77.0012 57.552C74.7714 56.6626 70.5334 57.3493 68.1144 58.1602C65.0761 59.2001 58.9669 63.5819 58.9669 63.5819Z" fill="#FFC100"/>
<path opacity="0.2" d="M58.9669 63.5819C58.9669 63.5819 64.9262 55.7339 68.2383 53.8961C71.5505 52.0584 78.9637 51.0774 83.5473 53.1048C87.1268 54.6809 78.3965 59.2982 78.3965 59.2982C78.3162 58.918 78.1482 58.5619 77.9059 58.2586C77.6636 57.9554 77.3537 57.7134 77.0012 57.552C74.7714 56.6626 70.5334 57.3493 68.1144 58.1602C65.0761 59.2001 58.9669 63.5819 58.9669 63.5819Z" fill="black"/>
<path d="M67.808 81.0175L66.3866 85.8506L60.0557 80.5139L58.6017 82.5544C58.6017 82.5544 65.1217 91.3834 65.1217 90.9518L66.6539 86.7596L69.6792 89.2906L68.7925 82.2994L67.808 81.0175Z" fill="#FFC100"/>
<path d="M69.4706 85.8048C69.2815 84.6603 69.1316 83.4962 68.8903 82.3582C68.8903 82.319 68.8186 82.3059 68.8121 82.3582C68.6882 83.4962 69.4184 87.8911 69.5162 88.9505C69.3858 88.8394 66.7192 86.74 66.6996 86.7793C66.3475 87.4333 65.2196 90.5136 65.1478 90.7883C64.1112 89.3822 60.1796 84.3071 58.993 82.9991C58.9869 82.9905 58.9777 82.9846 58.9673 82.9827C58.9569 82.9809 58.9462 82.9833 58.9375 82.9893C58.9289 82.9954 58.923 83.0047 58.9212 83.0151C58.9193 83.0255 58.9217 83.0363 58.9278 83.0449C59.8666 84.5426 65.0826 91.39 65.1478 91.3638C65.7573 89.9148 66.2905 88.4347 66.7452 86.9297C67.2082 87.4006 69.927 89.8007 69.9205 89.6242C69.8488 88.4404 69.6532 86.982 69.4706 85.8048Z" fill="#263238"/>
</svg>
