<svg width="269" height="268" viewBox="0 0 269 268" fill="none" xmlns="http://www.w3.org/2000/svg">
<path d="M197.984 89.9354C175.906 66.389 142.427 52.528 110.814 63.575C84.518 72.7513 62.7725 95.483 50.9483 120.814C42.6296 138.642 38.02 161.738 43.0852 181.168C47.4804 198.02 61.5236 205.513 77.5822 206.714C102.978 208.617 128.465 205.862 153.876 206.349C171.913 206.692 199.436 213.366 215.516 202.656C230.712 192.537 229.763 170.496 228.096 154.325C225.62 130.2 214.214 107.254 197.984 89.9354Z" fill="#6327C7"/>
<path opacity="0.7" d="M197.984 89.9354C175.906 66.389 142.427 52.528 110.814 63.575C84.518 72.7513 62.7725 95.483 50.9483 120.814C42.6296 138.642 38.02 161.738 43.0852 181.168C47.4804 198.02 61.5236 205.513 77.5822 206.714C102.978 208.617 128.465 205.862 153.876 206.349C171.913 206.692 199.436 213.366 215.516 202.656C230.712 192.537 229.763 170.496 228.096 154.325C225.62 130.2 214.214 107.254 197.984 89.9354Z" fill="white"/>
<path d="M64.4287 168.095H52.6367C52.5656 168.095 52.4975 168.067 52.4472 168.016C52.397 167.966 52.3687 167.898 52.3687 167.827V149.764H48.8686C48.8183 149.764 48.7688 149.751 48.726 149.724C48.6832 149.698 48.649 149.659 48.6274 149.614C48.6014 149.571 48.5876 149.522 48.5876 149.472C48.5876 149.422 48.6014 149.372 48.6274 149.33L58.2754 137.152C58.3011 137.121 58.3331 137.097 58.3692 137.08C58.4053 137.063 58.4447 137.054 58.4845 137.054C58.5243 137.054 58.5637 137.063 58.5998 137.08C58.6359 137.097 58.6679 137.121 58.6935 137.152L68.3415 149.33C68.3727 149.369 68.3921 149.416 68.3976 149.466C68.4032 149.516 68.3945 149.567 68.3727 149.612C68.3509 149.657 68.3169 149.695 68.2744 149.722C68.2319 149.749 68.1827 149.764 68.1325 149.764H64.6163V167.827C64.619 167.886 64.6021 167.944 64.5682 167.993C64.5342 168.041 64.4852 168.077 64.4287 168.095ZM52.9154 167.559H64.1714V149.496C64.1714 149.425 64.1997 149.356 64.2499 149.306C64.3002 149.256 64.3684 149.228 64.4394 149.228H67.6554L58.5434 137.752L49.4314 149.228H52.6474C52.7185 149.228 52.7867 149.256 52.837 149.306C52.8872 149.356 52.9154 149.425 52.9154 149.496V167.559Z" fill="#6327C7"/>
<path d="M182.799 168.095H171.007C170.936 168.095 170.868 168.067 170.817 168.016C170.767 167.966 170.739 167.898 170.739 167.827V149.764H167.223C167.173 149.764 167.123 149.749 167.081 149.722C167.038 149.695 167.004 149.657 166.983 149.612C166.961 149.567 166.952 149.516 166.958 149.466C166.963 149.416 166.983 149.369 167.014 149.33L176.689 137.152C176.714 137.121 176.746 137.097 176.782 137.08C176.818 137.063 176.858 137.054 176.898 137.054C176.937 137.054 176.977 137.063 177.013 137.08C177.049 137.097 177.081 137.121 177.107 137.152L186.781 149.33C186.813 149.369 186.832 149.416 186.838 149.466C186.843 149.516 186.834 149.567 186.813 149.612C186.791 149.657 186.757 149.695 186.714 149.722C186.672 149.749 186.623 149.764 186.572 149.764H183.056V167.827C183.056 167.896 183.03 167.963 182.982 168.013C182.934 168.063 182.868 168.092 182.799 168.095ZM171.286 167.559H182.542V149.496C182.542 149.425 182.57 149.356 182.62 149.306C182.67 149.256 182.739 149.228 182.81 149.228H186.026L176.914 137.752L167.802 149.228H171.018C171.089 149.228 171.157 149.256 171.207 149.306C171.257 149.356 171.286 149.425 171.286 149.496V167.559Z" fill="#6327C7"/>
<path d="M212.665 198.084H200.873C200.802 198.084 200.734 198.056 200.683 198.006C200.633 197.955 200.605 197.887 200.605 197.816V179.753H197.105C197.055 179.753 197.005 179.738 196.963 179.712C196.921 179.685 196.886 179.647 196.865 179.601C196.843 179.556 196.834 179.506 196.84 179.456C196.845 179.406 196.865 179.358 196.896 179.319L206.544 167.146C206.57 167.116 206.602 167.091 206.638 167.075C206.674 167.058 206.713 167.049 206.753 167.049C206.793 167.049 206.832 167.058 206.868 167.075C206.904 167.091 206.936 167.116 206.962 167.146L216.61 179.319C216.641 179.358 216.661 179.406 216.666 179.456C216.672 179.506 216.663 179.556 216.641 179.601C216.619 179.647 216.585 179.685 216.543 179.712C216.5 179.738 216.451 179.753 216.401 179.753H212.885V197.816C212.886 197.88 212.864 197.941 212.824 197.991C212.784 198.04 212.727 198.073 212.665 198.084ZM201.157 197.548H212.413V179.485C212.413 179.414 212.441 179.346 212.492 179.295C212.542 179.245 212.61 179.217 212.681 179.217H215.897L206.785 167.741L197.673 179.217H200.889C200.96 179.218 201.027 179.247 201.077 179.297C201.127 179.347 201.156 179.414 201.157 179.485V197.548Z" fill="#6327C7"/>
<path d="M200.428 128.04H188.636C188.565 128.04 188.497 128.011 188.447 127.961C188.396 127.911 188.368 127.843 188.368 127.772V109.708H184.852C184.801 109.709 184.751 109.694 184.708 109.667C184.665 109.639 184.632 109.6 184.611 109.553C184.589 109.507 184.581 109.457 184.587 109.406C184.592 109.356 184.612 109.309 184.643 109.269L194.291 97.0964C194.317 97.0658 194.35 97.0413 194.386 97.0245C194.423 97.0077 194.462 96.999 194.503 96.999C194.543 96.999 194.583 97.0077 194.619 97.0245C194.656 97.0413 194.688 97.0658 194.714 97.0964L204.362 109.269C204.393 109.309 204.412 109.357 204.417 109.407C204.422 109.457 204.414 109.507 204.392 109.553C204.371 109.598 204.337 109.637 204.295 109.664C204.253 109.692 204.204 109.707 204.153 109.708H200.637V127.772C200.639 127.834 200.619 127.894 200.581 127.943C200.542 127.992 200.489 128.026 200.428 128.04ZM188.92 127.504H200.176V109.44C200.176 109.369 200.204 109.301 200.255 109.251C200.305 109.201 200.373 109.172 200.444 109.172H203.66L194.548 97.6914L185.436 109.172H188.652C188.723 109.172 188.791 109.201 188.842 109.251C188.892 109.301 188.92 109.369 188.92 109.44V127.504Z" fill="#6327C7"/>
<path d="M89.0258 130.146H77.2338C77.1627 130.146 77.0946 130.118 77.0443 130.068C76.994 130.017 76.9658 129.949 76.9658 129.878V111.815H73.455C73.4043 111.816 73.3544 111.802 73.3112 111.776C73.2679 111.749 73.233 111.711 73.2106 111.666C73.1881 111.62 73.179 111.569 73.1843 111.519C73.1897 111.468 73.2092 111.421 73.2406 111.381L82.9154 99.2029C82.9411 99.1724 82.9731 99.1479 83.0092 99.1311C83.0453 99.1144 83.0846 99.1057 83.1244 99.1057C83.1643 99.1057 83.2036 99.1144 83.2397 99.1311C83.2758 99.1479 83.3078 99.1724 83.3335 99.2029L93.0083 111.381C93.0394 111.42 93.0589 111.468 93.0644 111.518C93.0699 111.567 93.0613 111.618 93.0395 111.663C93.0177 111.708 92.9836 111.747 92.9411 111.774C92.8987 111.8 92.8495 111.815 92.7992 111.815H89.2831V129.878C89.2831 129.947 89.2564 130.014 89.2084 130.064C89.1605 130.114 89.095 130.143 89.0258 130.146ZM77.5125 129.61H88.7685V111.547C88.7685 111.476 88.7968 111.408 88.847 111.357C88.8973 111.307 88.9655 111.279 89.0365 111.279H92.2525L83.1405 99.8032L74.0285 111.279H77.2445C77.3156 111.279 77.3838 111.307 77.434 111.357C77.4843 111.408 77.5125 111.476 77.5125 111.547V129.61Z" fill="#6327C7"/>
<path d="M107.786 198.084H95.9938C95.9227 198.084 95.8546 198.056 95.8043 198.006C95.754 197.955 95.7258 197.887 95.7258 197.816V179.753H92.2096C92.1594 179.753 92.1102 179.738 92.0678 179.712C92.0253 179.685 91.9912 179.647 91.9694 179.601C91.9476 179.556 91.939 179.506 91.9445 179.456C91.95 179.406 91.9695 179.358 92.0006 179.319L101.675 167.146C101.701 167.116 101.733 167.091 101.769 167.075C101.805 167.058 101.845 167.049 101.884 167.049C101.924 167.049 101.964 167.058 102 167.075C102.036 167.091 102.068 167.116 102.093 167.146L111.768 179.319C111.8 179.359 111.819 179.407 111.825 179.457C111.83 179.507 111.821 179.558 111.798 179.604C111.776 179.649 111.741 179.687 111.698 179.714C111.654 179.74 111.605 179.754 111.554 179.753H108.043V197.816C108.043 197.885 108.016 197.952 107.968 198.002C107.92 198.052 107.855 198.081 107.786 198.084ZM96.2725 197.548H107.529V179.485C107.529 179.414 107.557 179.346 107.607 179.295C107.657 179.245 107.725 179.217 107.797 179.217H111.013L101.901 167.741L92.7885 179.217H96.0045C96.0756 179.217 96.1438 179.245 96.194 179.295C96.2443 179.346 96.2725 179.414 96.2725 179.485V197.548Z" fill="#6327C7"/>
<path d="M136.644 230.834C166.839 230.834 191.316 227.995 191.316 224.493C191.316 220.991 166.839 218.152 136.644 218.152C106.45 218.152 81.972 220.991 81.972 224.493C81.972 227.995 106.45 230.834 136.644 230.834Z" fill="#6327C7"/>
<path opacity="0.5" d="M136.644 230.834C166.839 230.834 191.316 227.995 191.316 224.493C191.316 220.991 166.839 218.152 136.644 218.152C106.45 218.152 81.972 220.991 81.972 224.493C81.972 227.995 106.45 230.834 136.644 230.834Z" fill="white"/>
<path d="M171.629 72.3118C172.362 68.4061 171.926 64.3709 170.375 60.712C168.824 57.0532 166.228 53.9337 162.911 51.7447C159.594 49.5558 155.705 48.3947 151.731 48.4072C147.757 48.4198 143.876 49.6053 140.573 51.8151C138.174 45.9839 133.826 41.166 128.27 38.1837C122.715 35.2014 116.297 34.2395 110.111 35.4624C103.925 36.6852 98.3558 40.0169 94.353 44.8888C90.3502 49.7606 88.1623 55.8707 88.1627 62.176C88.1627 62.5137 88.1627 62.846 88.1627 63.1783C84.2522 64.2928 80.8437 66.7179 78.5089 70.047C76.174 73.3761 75.0547 77.4067 75.3387 81.4631C75.6227 85.5194 77.2927 89.3547 80.0687 92.326C82.8446 95.2973 86.5578 97.2238 90.5855 97.7825V97.9701H170.76C174.018 97.8571 177.111 96.5119 179.414 94.2062C181.718 91.9006 183.061 88.8064 183.171 85.549C183.281 82.2916 182.151 79.1137 180.008 76.6575C177.866 74.2014 174.871 72.6501 171.629 72.3171V72.3118Z" fill="#263238" stroke="#263238" stroke-linecap="round" stroke-linejoin="round"/>
<path d="M171.629 69.8998C172.362 65.9941 171.926 61.9589 170.375 58.3C168.824 54.6412 166.228 51.5217 162.911 49.3328C159.594 47.1438 155.705 45.9827 151.731 45.9953C147.757 46.0078 143.876 47.1933 140.573 49.4031C138.174 43.5724 133.826 38.7547 128.271 35.7723C122.717 32.79 116.299 31.8277 110.114 33.0499C103.928 34.272 98.3587 37.6027 94.3555 42.4737C90.3523 47.3446 88.1636 53.4538 88.1627 59.7587C88.1627 60.0963 88.1627 60.4287 88.1627 60.761C84.2522 61.8755 80.8437 64.3006 78.5089 67.6297C76.174 70.9587 75.0547 74.9894 75.3387 79.0457C75.6227 83.102 77.2927 86.9374 80.0687 89.9087C82.8446 92.8799 86.5578 94.8064 90.5855 95.3651V95.5527H170.76C174.018 95.4398 177.111 94.0945 179.414 91.7889C181.718 89.4833 183.061 86.3891 183.171 83.1317C183.281 79.8742 182.151 76.6963 180.008 74.2402C177.866 71.7841 174.871 70.2328 171.629 69.8998Z" fill="#6327C7" stroke="#263238" stroke-linecap="round" stroke-linejoin="round"/>
<path d="M143.826 141.751L140.455 143.519C140.455 143.519 136.762 145.127 134.35 146.408C131.938 147.689 120.055 156.85 120.055 156.85L117.648 157.011L116.201 157.975C116.201 157.975 113.789 158.458 113.789 158.94C113.789 159.423 114.271 159.578 114.754 159.578C115.48 159.395 116.181 159.127 116.844 158.779C116.844 158.779 115.209 161.17 115.853 161.17C116.784 161.266 117.709 161.415 118.624 161.615C119.688 161.417 120.761 161.273 121.84 161.186C122.644 161.186 124.568 156.85 124.568 156.85C124.568 156.85 138.381 151.388 140.149 150.101C141.918 148.815 147.053 145.604 147.053 145.604L143.826 141.751Z" fill="white" stroke="#263238" stroke-linecap="round" stroke-linejoin="round"/>
<path d="M156.792 128.554L141.736 142.233L146.078 147.373L154.428 144.163L157.317 128.742L156.792 128.554Z" fill="#6327C7" stroke="#263238" stroke-linecap="round" stroke-linejoin="round"/>
<path d="M143.746 140.411L141.736 142.233L146.078 147.373L148.666 146.376L143.746 140.411Z" fill="#263238" stroke="#263238" stroke-linecap="round" stroke-linejoin="round"/>
<path d="M183.072 214.148C183.072 214.148 187.854 219.122 188.341 221.561C188.829 224 187.661 226.149 185.71 225.56C183.759 224.97 182 218.929 181.513 217.857C181.025 216.785 180.441 215.611 180.441 215.611C180.441 215.611 181.904 213.66 183.072 214.148Z" fill="#6327C7" stroke="#263238" stroke-linecap="round" stroke-linejoin="round"/>
<path d="M188.384 221.824C188.738 224.15 187.585 226.112 185.704 225.576C185.023 225.377 184.369 224.504 183.785 223.432C185.061 221.368 187.114 221.481 188.384 221.824Z" fill="white" stroke="#263238" stroke-linecap="round" stroke-linejoin="round"/>
<path d="M183.121 222.022C184.193 223.485 185.554 225.056 186.583 224.782C187.612 224.509 188.154 222.574 188.341 221.566C188.824 224 187.655 226.133 185.709 225.549C184.755 225.275 183.855 223.694 183.121 222.022Z" fill="white" stroke="#263238" stroke-linecap="round" stroke-linejoin="round"/>
<path d="M182.097 216.882C182.097 216.882 184.241 215.708 184.343 216.099C184.445 216.49 182.295 217.562 182 217.562C181.706 217.562 181.513 217.466 182.097 216.882Z" fill="white" stroke="#263238" stroke-width="0.5" stroke-linecap="round" stroke-linejoin="round"/>
<path d="M182.585 217.562C182.585 217.562 184.729 216.394 184.831 216.785C184.932 217.177 182.783 218.248 182.488 218.248C182.193 218.248 182 218.152 182.585 217.562Z" fill="white" stroke="#263238" stroke-width="0.5" stroke-linecap="round" stroke-linejoin="round"/>
<path d="M183.072 218.249C183.072 218.249 185.216 217.075 185.318 217.466C185.42 217.857 183.271 218.929 182.976 218.929C182.681 218.929 182.488 218.833 183.072 218.249Z" fill="white" stroke="#263238" stroke-width="0.5" stroke-linecap="round" stroke-linejoin="round"/>
<path d="M183.56 218.929C183.56 218.929 185.704 217.761 185.806 218.147C185.908 218.533 183.758 219.61 183.464 219.61C183.169 219.61 182.976 219.513 183.56 218.929Z" fill="white" stroke="#263238" stroke-width="0.5" stroke-linecap="round" stroke-linejoin="round"/>
<path d="M144.55 218.624C144.55 218.624 146.415 221.223 146.581 222.697C146.748 224.171 145.509 224.209 143.934 224.043C142.358 223.876 140.476 225.04 138.257 224.981C136.038 224.922 133.471 223.951 134.704 222.896C135.937 221.84 139.153 220.971 139.849 220.366C140.265 220.002 140.656 219.609 141.018 219.192L144.55 218.624Z" fill="#6327C7" stroke="#263238" stroke-linecap="round" stroke-linejoin="round"/>
<path d="M134.704 222.896C135.137 222.555 135.613 222.272 136.119 222.054C136.685 222.358 137.184 222.774 137.584 223.277C137.984 223.78 138.277 224.36 138.445 224.981H138.252C136.033 224.922 133.471 223.952 134.704 222.896Z" fill="white" stroke="#263238" stroke-linecap="round" stroke-linejoin="round"/>
<path d="M140.053 220.023C140.053 220.023 142.342 221.218 141.763 221.454C141.184 221.69 139.447 220.35 140.053 220.023Z" fill="white" stroke="#263238" stroke-width="0.5" stroke-linecap="round" stroke-linejoin="round"/>
<path d="M139.163 220.264C139.163 220.264 141.452 221.459 140.873 221.695C140.294 221.931 138.558 220.591 139.163 220.264Z" fill="white" stroke="#263238" stroke-width="0.5" stroke-linecap="round" stroke-linejoin="round"/>
<path d="M138.649 220.618C138.649 220.618 140.937 221.813 140.358 222.049C139.78 222.285 138.043 220.945 138.649 220.618Z" fill="white" stroke="#263238" stroke-width="0.5" stroke-linecap="round" stroke-linejoin="round"/>
<path d="M137.716 221.046C137.716 221.046 140.005 222.242 139.426 222.478C138.847 222.713 137.1 221.368 137.716 221.046Z" fill="white" stroke="#263238" stroke-width="0.5" stroke-linecap="round" stroke-linejoin="round"/>
<path d="M134.446 223.223C136.051 224.167 137.96 224.45 139.769 224.011C141.449 223.641 143.155 223.405 144.872 223.303C145.456 223.286 146.035 223.189 146.592 223.014C146.549 224.177 145.392 224.198 143.912 224.043C142.336 223.871 140.455 225.04 138.236 224.981C136.263 224.927 134.012 224.145 134.446 223.223Z" fill="white" stroke="#263238" stroke-linecap="round" stroke-linejoin="round"/>
<path d="M167.989 161.336C167.989 161.336 166.864 177.009 167.544 180.809C168.225 184.609 169.903 195.924 169.903 195.924C169.903 195.924 172.443 197.779 174.979 201.874C177.514 205.969 183.072 214.164 183.072 214.164C183.072 214.164 183.271 215.628 181.513 216.115C181.513 216.115 180.634 216.507 180.146 216.115C179.658 215.724 162.994 200.314 161.027 197.098C159.06 193.882 156.444 174.093 156.444 174.093L153.909 173.605L143.189 194.091L145.054 218.994C145.054 218.994 145.199 219.851 143.982 220.2C142.765 220.548 141.784 220.671 141.055 220.044C140.326 219.417 134.682 192.145 135.159 191.17C135.636 190.194 146.453 163.384 146.453 163.384L147.327 161.143C147.327 161.143 157.569 162.312 162.152 161.433C166.735 160.553 167.603 159.857 167.989 161.336Z" fill="#263238" stroke="#263238" stroke-linecap="round" stroke-linejoin="round"/>
<path d="M153.909 173.589L148.345 171.933" stroke="white" stroke-linecap="round" stroke-linejoin="round"/>
<path d="M153.319 173.884L145.713 173.005" stroke="white" stroke-linecap="round" stroke-linejoin="round"/>
<path d="M166.242 164.37C166.242 164.37 162.125 166.996 166.242 168.749" stroke="white" stroke-linecap="round" stroke-linejoin="round"/>
<path d="M154.589 165.442L153.957 167.972L152.263 169.665L154.375 171.563" stroke="white" stroke-linecap="round" stroke-linejoin="round"/>
<path d="M178.704 135.458C174.952 132.413 170.294 128.736 170.294 128.736C170.294 128.736 160.416 128.511 156.792 128.554L151.7 144.806C151.7 144.806 147.021 160.993 147.214 161.679C147.407 162.365 150.73 163.92 158.143 164.799C165.556 165.678 168.675 162.558 168.863 161.583C168.944 160.699 168.879 159.808 168.67 158.945L171.205 154.459L179.594 140.662C180.1 139.834 180.288 138.85 180.125 137.893C179.961 136.936 179.456 136.071 178.704 135.458Z" fill="#6327C7" stroke="#263238" stroke-linecap="round" stroke-linejoin="round"/>
<path d="M175.772 133.083C172.899 130.779 170.31 128.736 170.31 128.736C170.31 128.736 167.03 128.661 163.562 128.608C162.683 130.612 161.166 134.708 162.415 136.734C163.937 139.231 168.97 139.976 175.772 133.083Z" fill="#263238" stroke="#263238" stroke-linecap="round" stroke-linejoin="round"/>
<path d="M171.307 112.024C171.307 112.024 168.482 112.807 167.309 114.559C166.135 116.312 162.726 126.56 162.822 127.423C162.919 128.286 167.309 127.423 167.309 127.423C167.309 127.423 164.286 133.764 164.286 134.836C164.286 135.908 165.652 136.498 167.405 136.106C169.158 135.715 175.145 125.424 175.145 125.424C175.145 125.424 176.919 127.482 178.039 126.775C179.326 125.965 178.918 124.336 177.943 124.336C176.967 124.336 180.671 120.337 179.406 117.706C178.141 115.074 172.481 111.15 171.307 112.024Z" fill="white" stroke="#263238" stroke-linecap="round" stroke-linejoin="round"/>
<path d="M170.235 108.91C170.235 108.91 164.773 108.91 164.478 111.542C164.184 114.173 167.019 115.347 170.139 114.859C173.258 114.372 176.088 114.565 176.479 115.052C176.871 115.54 172.674 116.516 173.649 117.196C174.216 117.604 174.903 117.811 175.6 117.786C175.6 117.786 174.234 118.172 174.33 119.147C174.427 120.123 175.279 124.432 175.938 124.432C176.597 124.432 177.921 124.347 177.921 124.347C179.156 123.725 180.278 122.901 181.239 121.908C182.702 120.348 183.088 117.03 181.239 115.085C179.39 113.139 177.921 111.247 176.458 109.687C174.995 108.127 173.628 106.471 170.701 106.08C167.775 105.688 166.236 106.857 170.235 108.91Z" fill="#263238" stroke="#263238" stroke-linecap="round" stroke-linejoin="round"/>
<path d="M181.625 118.992C181.726 119.563 181.746 120.146 181.684 120.723" stroke="white" stroke-linecap="round" stroke-linejoin="round"/>
<path d="M171.602 111.987C171.602 111.987 165.615 112.571 167.85 113.712C170.085 114.854 173.574 112.715 177.932 114.441C178.667 114.707 179.338 115.124 179.902 115.665C180.467 116.206 180.911 116.859 181.207 117.582" stroke="white" stroke-linecap="round" stroke-linejoin="round"/>
<path d="M175.236 116.532C175.236 116.532 179.326 118.531 179.867 121.436" stroke="white" stroke-linecap="round" stroke-linejoin="round"/>
<path d="M167.309 127.439C167.309 127.439 171.993 127.15 173.258 126.078" stroke="#263238" stroke-linecap="round" stroke-linejoin="round"/>
<path d="M165.845 123.537C165.845 123.537 169.26 124.513 170.235 122.465" stroke="#263238" stroke-linecap="round" stroke-linejoin="round"/>
<path d="M169.651 122.074L171.114 122.664" stroke="#263238" stroke-linecap="round" stroke-linejoin="round"/>
<path d="M166.917 119.051C166.917 119.051 163.894 119.442 163.894 119.93C163.894 120.418 165.845 121.785 165.845 121.785" fill="white"/>
<path d="M166.917 119.051C166.917 119.051 163.894 119.442 163.894 119.93C163.894 120.418 165.845 121.785 165.845 121.785" stroke="#263238" stroke-linecap="round" stroke-linejoin="round"/>
<path d="M167.303 118.113C167.164 118.536 166.88 118.82 166.665 118.751C166.451 118.681 166.397 118.284 166.542 117.861C166.687 117.438 166.966 117.154 167.18 117.223C167.394 117.293 167.448 117.695 167.303 118.113Z" fill="#263238"/>
<path d="M169.876 119.415C169.731 119.839 169.447 120.123 169.238 120.053C169.029 119.984 168.97 119.582 169.11 119.164C169.249 118.745 169.538 118.456 169.747 118.526C169.957 118.595 170.01 118.992 169.876 119.415Z" fill="#263238"/>
<path d="M170.01 116.644C170.01 116.644 171.489 116.778 171.35 118.788L170.01 116.644Z" fill="#263238" stroke="#263238" stroke-linecap="round" stroke-linejoin="round"/>
<path d="M168.67 115.706C168.67 115.706 167.861 114.634 166.789 116.108L168.67 115.706Z" fill="#263238" stroke="#263238" stroke-linecap="round" stroke-linejoin="round"/>
<path d="M141.752 80.0302L127.634 62.2618L113.521 80.0302H119.042V106.782H136.231V80.0302H141.752Z" fill="#263238" stroke="#263238" stroke-linecap="round" stroke-linejoin="round"/>
<path d="M141.752 78.8778L127.634 61.1094L113.521 78.8778H119.042V105.63H136.231V78.8778H141.752Z" fill="white" stroke="#263238" stroke-linecap="round" stroke-linejoin="round"/>
<path d="M155.168 102.612H97.7572V160.023H155.168V102.612Z" fill="white" stroke="#263238" stroke-linecap="round" stroke-linejoin="round"/>
<path d="M152.499 105.281H100.427V157.354H152.499V105.281Z" fill="#263238" stroke="#263238" stroke-linecap="round" stroke-linejoin="round"/>
<path d="M140.423 122.814L128.277 135.506L118.822 132.858C118.356 132.728 117.867 132.705 117.391 132.791C116.915 132.876 116.464 133.068 116.072 133.351L100.427 144.72V157.375H152.499V130.575L145.049 122.808C144.748 122.498 144.389 122.252 143.991 122.084C143.594 121.915 143.166 121.829 142.735 121.83C142.303 121.83 141.876 121.917 141.479 122.087C141.081 122.256 140.722 122.503 140.423 122.814Z" fill="white" stroke="#263238" stroke-linecap="round" stroke-linejoin="round"/>
<path d="M125.812 121.785C127.191 118.428 125.586 114.589 122.229 113.21C118.872 111.832 115.033 113.436 113.654 116.794C112.276 120.151 113.88 123.99 117.238 125.368C120.595 126.747 124.434 125.142 125.812 121.785Z" fill="white" stroke="#263238" stroke-linecap="round" stroke-linejoin="round"/>
<path d="M171.532 137.94L157.183 152.69L135.315 158.715C135.315 158.715 133.364 156.448 131.959 156.432C130.555 156.416 126.031 158.04 126.031 158.04C126.031 158.04 125.458 159.444 126.567 159.455C127.708 159.374 128.84 159.195 129.949 158.919L123.748 159.991C123.823 160.463 124.062 160.893 124.424 161.205C124.787 161.517 125.248 161.691 125.726 161.695H128.518L133.294 162.301L137.812 160.934C137.812 160.934 159.22 158.602 160.351 158.329C161.482 158.056 179.647 142.464 179.647 142.464C179.647 142.464 181.7 140.657 180.918 138.561C180.135 136.466 176.131 134.981 176.131 134.981" fill="white"/>
<path d="M171.532 137.94L157.183 152.69L135.315 158.715C135.315 158.715 133.364 156.448 131.959 156.432C130.555 156.416 126.031 158.04 126.031 158.04C126.031 158.04 125.458 159.444 126.567 159.455C127.708 159.374 128.84 159.195 129.949 158.919L123.748 159.991C123.823 160.463 124.062 160.893 124.424 161.205C124.787 161.517 125.248 161.691 125.726 161.695H128.518L133.294 162.301L137.812 160.934C137.812 160.934 159.22 158.602 160.351 158.329C161.482 158.056 179.647 142.464 179.647 142.464C179.647 142.464 181.7 140.657 180.918 138.561C180.135 136.466 176.131 134.981 176.131 134.981" stroke="#263238" stroke-linecap="round" stroke-linejoin="round"/>
<path d="M168.943 139.478L158.004 150.45L166.124 156.308L180.232 143.021C180.92 142.376 181.367 141.515 181.499 140.581C181.631 139.647 181.439 138.696 180.955 137.886L180.907 137.811C179.895 136.207 178.464 134.909 176.769 134.059" fill="#6327C7"/>
<path d="M168.943 139.478L158.004 150.45L166.124 156.308L180.232 143.021C180.92 142.376 181.367 141.515 181.499 140.581C181.631 139.647 181.439 138.696 180.955 137.886L180.907 137.811C179.895 136.207 178.464 134.909 176.769 134.059" stroke="#263238" stroke-linecap="round" stroke-linejoin="round"/>
<path d="M166.146 156.308L168.054 154.507L159.89 148.558L158.004 150.45L166.146 156.308Z" fill="#263238" stroke="#263238" stroke-linecap="round" stroke-linejoin="round"/>
<path d="M113.789 158.94L115.853 161.17L117.852 161.39L114.748 158.731L113.789 158.94Z" fill="white" stroke="#263238" stroke-linecap="round" stroke-linejoin="round"/>
<path d="M117.67 158.94L119.733 161.17L121.727 161.39L118.624 158.731L117.67 158.94Z" fill="white" stroke="#263238" stroke-linecap="round" stroke-linejoin="round"/>
<path d="M117.852 161.39L115.52 158.399H116.962L119.846 161.39L118.624 161.615L117.852 161.39Z" fill="white" stroke="#263238" stroke-linecap="round" stroke-linejoin="round"/>
<path d="M112.974 159.176L113.971 161.057L115.853 161.17L113.789 158.94L112.974 159.176Z" fill="white" stroke="#263238" stroke-linecap="round" stroke-linejoin="round"/>
</svg>
