<svg width="325" height="157" viewBox="0 0 325 157" fill="none" xmlns="http://www.w3.org/2000/svg">
<g filter="url(#filter0_d_5_308)">
<mask id="mask0_5_308" style="mask-type:luminance" maskUnits="userSpaceOnUse" x="24" y="0" width="300" height="137">
<path d="M324 0H24V137H324V0Z" fill="white"/>
</mask>
<g mask="url(#mask0_5_308)">
<path d="M36.8 43.2692C34.5447 43.2692 32.6552 42.5689 31.1314 41.1685C29.6686 39.7072 28.9371 37.9109 28.9371 35.7798C28.9371 33.6488 29.6686 31.8829 31.1314 30.4825C32.6552 29.0212 34.5447 28.2905 36.8 28.2905C39.0553 28.2905 40.9143 29.0212 42.3771 30.4825C43.901 31.8829 44.6628 33.6488 44.6628 35.7798C44.6628 37.9109 43.901 39.7072 42.3771 41.1685C40.9143 42.5689 39.0553 43.2692 36.8 43.2692ZM43.1086 49.2972V99.8958H30.3086V49.2972H43.1086ZM79.6178 100.535C75.1683 100.535 71.1454 99.7741 67.5493 98.2518C64.014 96.7296 61.2103 94.5376 59.1378 91.6758C57.0654 88.8141 55.9988 85.4348 55.9378 81.5378H69.6521C69.835 84.1561 70.7493 86.2262 72.395 87.7485C74.1017 89.2708 76.4178 90.0318 79.3436 90.0318C82.3303 90.0318 84.6768 89.3316 86.3836 87.9312C88.0903 86.4698 88.9436 84.5822 88.9436 82.2685C88.9436 80.3809 88.3646 78.8282 87.2064 77.6105C86.0483 76.3928 84.5854 75.4489 82.8178 74.7792C81.1111 74.0485 78.734 73.2569 75.6864 72.4045C71.5417 71.1868 68.1588 69.9994 65.5378 68.8425C62.9778 67.6248 60.7531 65.8285 58.8636 63.4538C57.035 61.0182 56.1207 57.7912 56.1207 53.7725C56.1207 49.9974 57.0654 46.7094 58.955 43.9085C60.8446 41.1076 63.496 38.9765 66.9093 37.5152C70.3226 35.9929 74.2236 35.2318 78.6121 35.2318C85.195 35.2318 90.5283 36.8454 94.6121 40.0725C98.7568 43.2388 101.043 47.6836 101.469 53.4072H87.3893C87.2674 51.2152 86.3226 49.4189 84.555 48.0185C82.8483 46.5572 80.5626 45.8265 77.6978 45.8265C75.1988 45.8265 73.1874 46.4658 71.6636 47.7445C70.2007 49.0232 69.4693 50.8802 69.4693 53.3158C69.4693 55.0208 70.0178 56.4516 71.115 57.6085C72.2731 58.7045 73.675 59.6178 75.3207 60.3485C77.0274 61.0182 79.4046 61.8098 82.4521 62.7232C86.5968 63.9409 89.9797 65.1588 92.6007 66.3765C95.2217 67.5942 97.4768 69.4209 99.3664 71.8565C101.256 74.2921 102.201 77.4888 102.201 81.4465C102.201 84.8562 101.317 88.0225 99.5493 90.9452C97.7817 93.8678 95.1911 96.2121 91.7778 97.9778C88.3646 99.6828 84.3111 100.535 79.6178 100.535ZM130.029 59.8005V84.2778C130.029 85.9828 130.425 87.2309 131.218 88.0225C132.071 88.7532 133.473 89.1185 135.424 89.1185H141.366V99.8958H133.321C122.532 99.8958 117.138 94.6594 117.138 84.1865V59.8005H111.104V49.2972H117.138V36.7845H130.029V49.2972H141.366V59.8005H130.029Z" fill="white"/>
<path d="M244.16 74.5052C244.16 69.4515 245.196 64.9761 247.269 61.0792C249.401 57.1215 252.267 54.0465 255.863 51.8545C259.459 49.6625 263.421 48.5665 267.749 48.5665C271.344 48.5665 274.514 49.2668 277.257 50.6672C280.061 52.0068 282.316 53.7421 284.023 55.8732V49.2972H296.914V124.008H284.023V92.9545C282.316 95.1465 280.03 96.9732 277.166 98.4345C274.301 99.8959 271.07 100.627 267.474 100.627C263.207 100.627 259.276 99.5305 255.68 97.3385C252.144 95.0856 249.341 91.9803 247.269 88.0225C245.196 84.0648 244.16 79.5589 244.16 74.5052ZM284.023 74.5965C284.023 71.4912 283.383 68.8121 282.103 66.5592C280.823 64.3063 279.147 62.6015 277.074 61.4445C275.063 60.2876 272.899 59.7092 270.583 59.7092C268.327 59.7092 266.164 60.2876 264.091 61.4445C262.08 62.6015 260.434 64.3063 259.154 66.5592C257.874 68.7512 257.234 71.3999 257.234 74.5052C257.234 77.6105 257.874 80.3201 259.154 82.6339C260.434 84.8868 262.08 86.5916 264.091 87.7485C266.164 88.9055 268.327 89.4839 270.583 89.4839C272.899 89.4839 275.063 88.9055 277.074 87.7485C279.147 86.5916 280.823 84.8868 282.103 82.6339C283.383 80.3809 284.023 77.7019 284.023 74.5965Z" fill="white"/>
<path fill-rule="evenodd" clip-rule="evenodd" d="M232.944 42.6952C234.444 43.2962 235.429 44.7509 235.429 46.3687V92.0584C235.429 93.6762 234.444 95.131 232.944 95.7319L194.753 111.03C193.811 111.407 192.76 111.407 191.819 111.03L153.626 95.7319C152.126 95.131 151.143 93.6762 151.143 92.0584V46.3687C151.143 44.7509 152.126 43.2962 153.626 42.6952L190.351 27.9853L190.373 27.9771L191.819 27.3976C192.76 27.0203 193.811 27.0203 194.753 27.3976L196.2 27.9771L196.22 27.9853L232.944 42.6952ZM225.703 45.4759L193.286 58.4602L160.869 45.4759L156.411 47.2616V49.3717L190.651 63.0868V104.881L193.286 105.936L195.92 104.881V63.0868L230.161 49.3717V47.2616L225.703 45.4759Z" fill="#9F3ECE"/>
</g>
</g>
<defs>
<filter id="filter0_d_5_308" x="-4" y="-24" width="356" height="193" filterUnits="userSpaceOnUse" color-interpolation-filters="sRGB">
<feFlood flood-opacity="0" result="BackgroundImageFix"/>
<feColorMatrix in="SourceAlpha" type="matrix" values="0 0 0 0 0 0 0 0 0 0 0 0 0 0 0 0 0 0 127 0" result="hardAlpha"/>
<feOffset dy="4"/>
<feGaussianBlur stdDeviation="14"/>
<feComposite in2="hardAlpha" operator="out"/>
<feColorMatrix type="matrix" values="0 0 0 0 0 0 0 0 0 0 0 0 0 0 0 0 0 0 0.3 0"/>
<feBlend mode="normal" in2="BackgroundImageFix" result="effect1_dropShadow_5_308"/>
<feBlend mode="normal" in="SourceGraphic" in2="effect1_dropShadow_5_308" result="shape"/>
</filter>
</defs>
</svg>
